<?xml version="1.0" standalone="no"?>
<!DOCTYPE svg PUBLIC "-//W3C//DTD SVG 1.1//EN" "http://www.w3.org/Graphics/SVG/1.1/DTD/svg11.dtd" >
<svg xmlns="http://www.w3.org/2000/svg">
<metadata>Generated by IcoMoon</metadata>
<defs>
<font id="MobiChord-Icons" horiz-adv-x="1024">
<font-face units-per-em="1024" ascent="960" descent="-64" />
<missing-glyph horiz-adv-x="1024" />
<glyph unicode="&#x20;" d="" horiz-adv-x="512" />
<glyph unicode="&#xe600;" d="M496.339 123.934c0 21.685 7.228 38.551 21.685 50.598s33.732 19.275 55.416 19.275 40.96-7.228 55.416-19.275 21.685-31.322 21.685-50.598-7.228-38.551-21.685-50.598-33.732-19.275-55.416-19.275-40.96 7.228-55.416 19.275-21.685 31.322-21.685 50.598zM636.085 256.452h-115.652l-19.275 421.647h151.793l-16.866-421.647zM583.078 887.718c19.275 0 40.96-19.275 57.826-50.598l93.967-161.431 125.289-214.438 118.061-199.981 93.967-161.431c16.866-31.322 24.094-53.007 14.456-69.873-9.638-14.456-36.141-19.275-72.282-19.275h-867.388c-36.141 0-62.645 4.819-72.282 19.275-7.228 14.456-2.409 38.551 16.866 69.873l93.967 161.431 118.061 199.981 125.289 214.438 93.967 161.431c19.275 31.322 40.96 50.598 60.235 50.598zM583.078 960c-43.369 0-89.148-28.913-120.471-86.739l-93.967-161.431c-69.873-113.242-178.296-301.176-245.76-416.828l-93.967-156.612c-67.464-115.652-12.047-202.391 120.471-202.391h192.753c132.518 0 349.365 0 481.882 0h192.753c132.518 0 185.525 89.148 120.471 202.391l-93.967 159.021c-67.464 115.652-175.887 301.176-243.351 414.419l-93.967 161.431c-36.141 57.826-79.511 86.739-122.88 86.739v0z" horiz-adv-x="1164" />
<glyph unicode="&#xe601;" d="M523.378 960h-455.111c-38.684 0-68.267-29.582-68.267-68.267v-887.467c0-38.684 29.582-68.267 68.267-68.267h455.111c38.684 0 68.267 29.582 68.267 68.267v887.467c0 38.684-29.582 68.267-68.267 68.267zM229.831 914.489h136.533c11.378 0 22.756-4.551 22.756-11.378s-11.378-11.378-22.756-11.378h-136.533c-11.378 0-22.756 4.551-22.756 11.378s11.378 11.378 22.756 11.378zM343.609-25.316h-91.022c-11.378 0-22.756 11.378-22.756 22.756 0 13.653 11.378 22.756 22.756 22.756h91.022c11.378 0 22.756-9.102 22.756-22.756 0-11.378-11.378-22.756-22.756-22.756zM523.378 72.533c0-11.378-11.378-22.756-22.756-22.756h-409.6c-11.378 0-22.756 11.378-22.756 22.756v750.933c0 11.378 11.378 22.756 22.756 22.756h409.6c11.378 0 22.756-11.378 22.756-22.756v-750.933z" horiz-adv-x="592" />
<glyph unicode="&#xe602;" d="M1347.368-64h-1347.368v1024h80.842v-943.158h1266.526zM188.632 421.053h269.474v-350.316h-269.474v350.316zM565.895 960h269.474v-889.263h-269.474v889.263zM943.158 717.474h269.474v-646.737h-269.474v646.737z" horiz-adv-x="1347" />
<glyph unicode="&#xe603;" d="M1201.968-64l-90.353 60.235c60.235 90.353 93.091 197.134 93.091 306.652 0 301.176-246.417 547.594-547.594 547.594s-547.594-246.417-547.594-547.594c0-109.519 32.856-213.561 93.091-303.914l-90.353-60.235c-73.925 106.781-112.257 232.727-112.257 364.15 0 361.412 295.701 657.112 657.112 657.112s657.112-295.701 657.112-657.112c0-131.422-38.332-257.369-112.257-366.888zM955.551 385.027c-2.738 8.214-5.476 13.69-5.476 21.904l128.684 46.545c2.738-10.952 8.214-19.166 10.952-30.118l-134.16-38.332zM919.957 469.904c-8.214 13.69-16.428 24.642-27.38 38.332l104.043 90.353c13.69-16.428 27.38-35.594 41.070-52.021l-117.733-76.663zM394.267 469.904l-114.995 73.925c10.952 19.166 24.642 35.594 41.070 52.021l104.043-90.353c-10.952-10.952-21.904-21.904-30.118-35.594zM840.556 552.043c-13.69 8.214-24.642 16.428-38.332 24.642l62.973 120.471c19.166-10.952 38.332-21.904 57.497-35.594l-82.139-109.519zM473.668 552.043l-82.139 109.519c19.166 13.69 35.594 24.642 57.497 35.594l62.973-120.471c-13.69-5.476-24.642-13.69-38.332-24.642zM736.513 604.064c-13.69 2.738-30.118 5.476-46.545 8.214l16.428 136.898c21.904-2.738 43.807-5.476 65.711-13.69l-35.594-131.422zM577.711 604.064l-35.594 131.422c21.904 5.476 43.807 10.952 65.711 10.952l13.69-136.898c-13.69 0-30.118-2.738-43.807-5.476zM358.674 385.027l-131.422 35.594c2.738 10.952 5.476 21.904 10.952 30.118l128.684-46.545c-5.476-5.476-8.214-10.952-8.214-19.166zM722.824 228.963l-27.38 120.471-38.332 158.802-38.332-158.802-27.38-120.471c-35.594-21.904-57.497-60.235-57.497-104.043 0-68.449 54.759-123.209 123.209-123.209s123.209 54.759 123.209 123.209c0 43.807-21.904 82.139-57.497 104.043z" horiz-adv-x="1314" />
<glyph unicode="&#xe604;" d="M512 609.6c-107.2 0-193.6-86.4-193.6-193.6s86.4-193.6 193.6-193.6 193.6 86.4 193.6 193.6-86.4 193.6-193.6 193.6zM512 302.4c-62.4 0-113.6 51.2-113.6 113.6s51.2 113.6 113.6 113.6 113.6-51.2 113.6-113.6-51.2-113.6-113.6-113.6zM832 518.4c0-20.8-17.6-38.4-38.4-38.4s-38.4 17.6-38.4 38.4c0 20.8 17.6 38.4 38.4 38.4 20.8-1.6 38.4-17.6 38.4-38.4zM908.8 960h-793.6c-64 0-115.2-51.2-115.2-115.2v-795.2c0-62.4 51.2-113.6 115.2-113.6h795.2c62.4 0 115.2 51.2 115.2 115.2v793.6c-1.6 64-52.8 115.2-116.8 115.2zM944 224c0-52.8-43.2-96-96-96h-672c-52.8 0-96 43.2-96 96v320c0 52.8 43.2 96 96 96h128v32c0 52.8 43.2 96 96 96h224c52.8 0 96-43.2 96-96v-32h128c52.8 0 96-43.2 96-96v-320z" />
<glyph unicode="&#xe605;" d="M698.182 960h-648.312c-28.26 0-49.87-26.597-49.87-54.857v-781.299c0-26.597 21.61-44.883 49.87-44.883h116.364v-54.857c0-28.26 21.61-44.883 49.87-44.883h332.468c6.649 0 14.961 1.662 21.61 3.325-33.247 31.584-59.844 69.818-76.468 113.039h-277.61v581.818h332.468v-274.286c14.961 16.623 31.584 31.584 49.87 44.883v224.416c0 26.597-21.61 54.857-49.87 54.857h-332.468c-28.26 0-49.87-26.597-49.87-54.857v-443.844h-99.74v664.935h615.065v-402.286c21.61 6.649 43.221 11.636 66.494 13.299v400.623c0 28.26-21.61 54.857-49.87 54.857zM382.338 65.662c13.299 0 24.935-11.636 24.935-24.935s-11.636-24.935-24.935-24.935-24.935 11.636-24.935 24.935c0 14.961 11.636 24.935 24.935 24.935zM365.714 710.649h33.247c9.974 0 16.623-3.325 16.623-8.312s-6.649-8.312-16.623-8.312h-33.247c-9.974 0-16.623 3.325-16.623 8.312s6.649 8.312 16.623 8.312zM772.987 471.273c-8.312 0-16.623 0-24.935-1.662-23.273-1.662-44.883-6.649-66.494-14.961-29.922-11.636-58.182-28.26-83.117-49.87-19.948-16.623-36.571-36.571-49.87-58.182-26.597-41.558-41.558-91.429-41.558-144.623 0-38.234 8.312-74.805 23.273-108.052 14.961-34.909 36.571-64.831 64.831-89.766 46.545-43.221 109.714-69.818 179.532-69.818 146.286 0 265.974 119.688 265.974 267.636-1.662 149.61-121.351 269.299-267.636 269.299zM772.987-14.13c-71.481 0-134.649 34.909-174.545 89.766-26.597 36.571-41.558 79.792-41.558 128s14.961 93.091 41.558 128c21.61 29.922 49.87 53.195 83.117 69.818 19.948 9.974 43.221 16.623 66.494 18.286 8.312 1.662 16.623 1.662 24.935 1.662 119.688 0 216.104-98.078 216.104-217.766s-96.416-217.766-216.104-217.766zM914.286 228.571h-116.364v116.364h-49.87v-116.364h-116.364v-49.87h116.364v-116.364h49.87v116.364h116.364z" horiz-adv-x="1039" />
<glyph unicode="&#xe606;" d="M523.378 960h-455.111c-38.684 0-68.267-29.582-68.267-68.267v-887.467c0-38.684 29.582-68.267 68.267-68.267h455.111c38.684 0 68.267 29.582 68.267 68.267v887.467c0 38.684-29.582 68.267-68.267 68.267zM273.067 937.244h45.511c11.378 0 22.756-4.551 22.756-11.378s-11.378-11.378-22.756-11.378h-45.511c-11.378 0-22.756 4.551-22.756 11.378s11.378 11.378 22.756 11.378zM295.822-7.111c-18.204 0-34.133 15.929-34.133 34.133s15.929 34.133 34.133 34.133 34.133-15.929 34.133-34.133c0-18.204-15.929-34.133-34.133-34.133zM523.378 118.044c0-11.378-11.378-22.756-22.756-22.756h-409.6c-11.378 0-22.756 11.378-22.756 22.756v750.933c0 11.378 11.378 22.756 22.756 22.756h409.6c11.378 0 22.756-11.378 22.756-22.756v-750.933z" horiz-adv-x="592" />
<glyph unicode="&#xe607;" d="M683.221 960h-635.013c-26.597 0-48.208-21.61-48.208-49.87v-781.299c0-28.26 21.61-49.87 48.208-49.87h452.156c-16.623 38.234-26.597 79.792-26.597 124.675 0 8.312 0 16.623 1.662 24.935h-408.935v664.935h598.442v-408.935c21.61 8.312 43.221 14.961 66.494 16.623v408.935c0 28.26-21.61 49.87-48.208 49.87zM365.714 195.325c18.286 0 33.247-14.961 33.247-33.247s-14.961-33.247-33.247-33.247c-18.286 0-33.247 14.961-33.247 33.247s14.961 33.247 33.247 33.247zM772.987 421.403c119.688 0 216.104-98.078 216.104-217.766s-96.416-217.766-216.104-217.766-216.104 98.078-216.104 217.766 96.416 217.766 216.104 217.766v0zM772.987 471.273c-146.286 0-265.974-119.688-265.974-267.636s119.688-267.636 265.974-267.636 265.974 119.688 265.974 267.636-119.688 267.636-265.974 267.636v0zM914.286 228.571h-116.364v116.364h-49.87v-116.364h-116.364v-49.87h116.364v-116.364h49.87v116.364h116.364z" horiz-adv-x="1039" />
<glyph unicode="&#xe608;" d="M512 537.782c9.706 0 19.412-2.427 29.118-4.853 4.853-2.427 9.706-4.853 14.559-7.28 16.986-9.706 29.118-21.839 38.825-38.825v0 0c2.427-4.853 4.853-7.28 4.853-14.559 2.427-9.706 4.853-16.986 4.853-26.692s-2.427-16.986-4.853-26.692c-2.427-4.853-4.853-9.706-7.28-14.559-9.706-16.986-21.839-29.118-38.825-38.825-4.853-2.427-9.706-4.853-14.559-4.853-9.706-2.427-19.412-4.853-26.692-4.853-9.706 0-19.412 2.427-29.118 4.853-4.853 2.427-9.706 4.853-14.559 7.28-16.986 9.706-29.118 21.839-38.825 38.825-2.427 4.853-4.853 9.706-4.853 14.559-2.427 7.28-4.853 16.986-4.853 26.692s2.427 16.986 4.853 26.692c2.427 4.853 4.853 9.706 7.28 14.559 9.706 16.986 21.839 29.118 38.825 38.825 4.853 2.427 9.706 4.853 14.559 4.853 7.28 2.427 16.986 4.853 26.692 4.853zM512 651.829c-21.839 0-41.251-2.427-60.664-9.706-12.133-4.853-24.265-7.28-33.972-14.559-36.398-19.412-67.943-48.531-87.355-84.929-4.853-12.133-9.706-21.839-14.559-33.972-7.28-19.412-9.706-38.825-9.706-60.664s2.427-41.251 9.706-60.664c4.853-12.133 9.706-24.265 14.559-33.972 19.412-36.398 50.957-67.943 87.355-87.355 12.133-4.853 21.839-9.706 33.972-14.559 19.412-7.28 41.251-9.706 63.090-9.706s41.251 2.427 60.664 9.706c12.133 4.853 24.265 7.28 33.972 14.559 36.398 19.412 67.943 48.531 87.355 84.929 4.853 12.133 9.706 21.839 14.559 33.972 7.28 19.412 9.706 38.825 9.706 60.664s-2.427 41.251-9.706 60.664c-4.853 12.133-9.706 24.265-14.559 33.972-19.412 36.398-50.957 67.943-87.355 87.355-12.133 4.853-21.839 9.706-33.972 14.559-19.412 7.28-41.251 9.706-63.090 9.706v0zM1019.147 384.91c2.427 19.412 4.853 41.251 4.853 63.090 0 19.412-2.427 41.251-4.853 60.664l-145.592 14.559c-9.706 46.104-26.692 87.355-53.384 126.18l94.635 114.047c-24.265 31.545-53.384 60.664-87.355 87.355l-114.047-94.635c-38.825 24.265-80.076 43.678-126.18 53.384l-14.559 148.019c-19.412 0-38.825 2.427-60.664 2.427-19.412 0-41.251-2.427-60.664-4.853l-14.559-145.592c-46.104-9.706-89.782-26.692-126.18-53.384l-114.047 94.635c-31.545-24.265-60.664-53.384-87.355-87.355l94.635-114.047c-24.265-38.825-43.678-80.076-53.384-126.18l-148.019-14.559c0-19.412-2.427-38.825-2.427-60.664 0-19.412 2.427-41.251 4.853-60.664l148.019-14.559c9.706-46.104 26.692-89.782 53.384-126.18l-94.635-114.047c24.265-31.545 53.384-60.664 87.355-87.355l114.047 94.635c38.825-24.265 80.076-43.678 126.18-53.384l14.559-148.019c19.412-2.427 41.251-4.853 63.090-4.853 19.412 0 41.251 2.427 60.664 4.853l14.559 148.019c46.104 9.706 89.782 26.692 126.18 53.384l114.047-94.635c31.545 24.265 60.664 53.384 87.355 87.355l-94.635 114.047c24.265 38.825 43.678 80.076 53.384 126.18l140.739 12.133zM781.346 363.071c-4.853-16.986-12.133-31.545-19.412-48.531-26.692-50.957-67.943-92.209-118.9-118.9-14.559-7.28-31.545-14.559-46.104-19.412-26.692-7.28-53.384-12.133-82.502-12.133s-58.237 4.853-84.929 12.133c-16.986 4.853-31.545 12.133-48.531 19.412-50.957 26.692-92.209 67.943-118.9 118.9-7.28 14.559-14.559 31.545-19.412 46.104-7.28 26.692-12.133 53.384-12.133 82.502s4.853 58.237 12.133 84.929c4.853 16.986 12.133 31.545 19.412 48.531 26.692 50.957 67.943 92.209 118.9 118.9 14.559 7.28 31.545 14.559 46.104 19.412 26.692 7.28 53.384 12.133 82.502 12.133s58.237-4.853 84.929-12.133c16.986-4.853 31.545-12.133 48.531-19.412 50.957-26.692 92.209-67.943 118.9-118.9 7.28-14.559 14.559-31.545 19.412-46.104 7.28-26.692 12.133-53.384 12.133-82.502s-4.853-58.237-12.133-84.929z" />
<glyph unicode="&#xe609;" d="M694.798 960h-645.17c-28.123 0-49.628-21.506-49.628-49.628v-777.512c0-28.123 21.506-49.628 49.628-49.628h115.8v-49.628c0-26.468 21.506-49.628 49.628-49.628h330.856c4.963 0 8.271 0 13.234 1.654-33.086 31.431-57.9 71.134-74.443 114.145h-269.648v578.998h330.856v-271.302c14.889 16.543 31.431 31.431 49.628 43.011v228.291c0 28.123-21.506 49.628-49.628 49.628h-330.856c-28.123 0-49.628-21.506-49.628-49.628v-446.656h-99.257v661.712h612.084v-403.645c21.506 6.617 43.011 9.926 66.171 11.58v408.607c0 28.123-21.506 49.628-49.628 49.628zM380.485 74.96c13.234 0 24.814-11.58 24.814-24.814s-11.58-24.814-24.814-24.814-24.814 11.58-24.814 24.814c0 14.889 11.58 24.814 24.814 24.814zM363.942 711.858h33.086c9.926 0 16.543-3.309 16.543-8.271s-6.617-8.271-16.543-8.271h-33.086c-9.926 0-16.543 3.309-16.543 8.271s6.617 8.271 16.543 8.271zM764.278 470.333c-6.617 0-13.234 0-19.851-1.654-23.16-1.654-44.666-6.617-66.171-13.234-29.777-9.926-57.9-26.468-82.714-46.32-18.197-16.543-36.394-34.74-49.628-54.591-29.777-43.011-46.32-95.948-46.32-152.194 0-36.394 6.617-71.134 19.851-102.565 14.889-36.394 38.048-69.48 66.171-95.948 46.32-43.011 109.183-69.48 177.008-69.48 145.577 0 264.685 119.108 264.685 266.339 1.654 148.885-117.454 269.648-263.031 269.648zM764.278-14.372c-67.826 0-129.034 31.431-168.737 82.714-29.777 38.048-46.32 84.368-46.32 135.651s18.197 97.603 46.32 135.651c21.506 28.123 49.628 49.628 82.714 64.517 21.506 8.271 43.011 14.889 66.171 16.543 6.617 0 13.234 1.654 19.851 1.654 119.108 0 215.057-97.603 215.057-216.711 0-122.417-97.603-220.019-215.057-220.019zM794.055 50.145v0h-66.171v165.428h-33.086v49.628h99.257v-215.057zM799.018 329.719c0-20.1-16.294-36.394-36.394-36.394s-36.394 16.294-36.394 36.394c0 20.1 16.294 36.394 36.394 36.394s36.394-16.294 36.394-36.394z" horiz-adv-x="1029" />
<glyph unicode="&#xe60a;" d="M390.69 223.22c0-44.599 8.92-87.415 26.76-126.662-10.704 0-21.408 0-32.111 0-214.077 0-385.338 69.575-385.338 155.206v92.767c0 19.624 17.84 42.815 35.679 51.735l222.997 117.742c1.784 1.784 5.352 1.784 7.136 3.568 32.111-24.976 73.143-39.247 117.742-39.247s85.631 14.272 117.742 39.247c1.784 0 5.352-1.784 7.136-3.568l32.111-17.84c-89.199-55.303-149.854-156.99-149.854-272.948zM572.655 747.707c0-115.958-85.631-210.509-192.669-210.509s-192.669 94.551-192.669 210.509c0 117.742 87.415 212.293 192.669 212.293 107.038 0 192.669-94.551 192.669-212.293zM711.805 458.704c128.446 0 231.916-105.254 231.916-233.7s-103.47-233.7-231.916-233.7-231.916 105.254-231.916 233.7 103.47 233.7 231.916 233.7zM711.805 512.223c-156.99 0-285.436-128.446-285.436-287.22s128.446-287.22 285.436-287.22 285.436 128.446 285.436 287.22-128.446 287.22-285.436 287.22v0zM743.916 59.094v0h-71.359v178.397h-35.679v53.519h107.038v-231.916zM749.268 360.585c0-21.676-17.572-39.247-39.247-39.247s-39.247 17.572-39.247 39.247c0 21.676 17.572 39.247 39.247 39.247s39.247-17.572 39.247-39.247z" horiz-adv-x="997" />
<glyph unicode="&#xe60b;" d="M694.798 960h-645.17c-28.123 0-49.628-21.506-49.628-49.628v-777.512c0-28.123 21.506-49.628 49.628-49.628h115.8v-49.628c0-26.468 21.506-49.628 49.628-49.628h330.856c3.309 0 6.617 0 9.926 0-33.086 31.431-59.554 71.134-76.097 115.8h-264.685v578.998h330.856v-267.994c14.889 14.889 31.431 29.777 49.628 41.357v226.637c0 28.123-21.506 49.628-49.628 49.628h-330.856c-28.123 0-49.628-21.506-49.628-49.628v-446.656h-99.257v661.712h612.084v-401.99c21.506 6.617 43.011 9.926 66.171 11.58v406.953c0 28.123-21.506 49.628-49.628 49.628zM380.485 74.96c13.234 0 24.814-11.58 24.814-24.814s-11.58-24.814-24.814-24.814-24.814 11.58-24.814 24.814c0 14.889 11.58 24.814 24.814 24.814zM363.942 711.858h33.086c9.926 0 16.543-3.309 16.543-8.271s-6.617-8.271-16.543-8.271h-33.086c-9.926 0-16.543 3.309-16.543 8.271s6.617 8.271 16.543 8.271zM759.315 420.704c119.108 0 215.057-97.603 215.057-216.711s-95.948-216.711-215.057-216.711-215.057 97.603-215.057 216.711 97.603 216.711 215.057 216.711v0zM759.315 470.333c-145.577 0-264.685-119.108-264.685-266.339s119.108-266.339 264.685-266.339 264.685 119.108 264.685 266.339-117.454 266.339-264.685 266.339v0zM903.237 185.796c0 4.963 1.654 11.58 1.654 18.197 0 4.963 0 11.58-1.654 16.543l-41.357 3.309c-3.309 13.234-8.271 24.814-14.889 36.394l26.468 31.431c-6.617 9.926-14.889 18.197-24.814 24.814l-33.086-26.468c-9.926 6.617-23.16 11.58-36.394 14.889l-1.654 41.357c-4.963 0-11.58 1.654-18.197 1.654-4.963 0-11.58 0-16.543-1.654l-3.309-41.357c-13.234-3.309-24.814-8.271-36.394-14.889l-31.431 26.468c-9.926-6.617-16.543-14.889-24.814-24.814l26.468-33.086c-6.617-9.926-11.58-23.16-14.889-36.394l-41.357-3.309c0-4.963-1.654-11.58-1.654-18.197 0-4.963 0-11.58 1.654-16.543l41.357-3.309c3.309-13.234 8.271-24.814 14.889-36.394l-28.123-31.431c6.617-9.926 14.889-16.543 24.814-24.814l33.086 26.468c9.926-6.617 23.16-11.58 36.394-14.889l3.309-41.357c4.963 0 11.58-1.654 18.197-1.654 4.963 0 11.58 0 16.543 1.654l3.309 41.357c13.234 3.309 24.814 8.271 36.394 14.889l31.431-26.468c9.926 6.617 16.543 14.889 24.814 24.814l-26.468 33.086c6.617 9.926 11.58 23.16 14.889 36.394l41.357 3.309zM799.018 190.759c0-1.654-1.654-4.963-3.309-6.617-3.309-6.617-9.926-13.234-18.197-16.543-1.654-1.654-4.963-1.654-6.617-3.309-3.309-1.654-8.271-1.654-11.58-1.654-4.963 0-8.271 0-11.58 1.654-1.654 0-4.963 1.654-6.617 3.309-6.617 3.309-13.234 9.926-16.543 18.197-1.654 1.654-1.654 4.963-3.309 6.617-1.654 3.309-1.654 8.271-1.654 11.58 0 4.963 0 8.271 1.654 11.58 0 1.654 1.654 4.963 3.309 6.617 3.309 6.617 9.926 13.234 18.197 16.543 1.654 1.654 4.963 1.654 6.617 3.309 3.309 1.654 8.271 1.654 11.58 1.654 4.963 0 8.271 0 11.58-1.654 1.654 0 4.963-1.654 6.617-3.309 6.617-3.309 13.234-9.926 16.543-16.543 1.654-1.654 1.654-4.963 3.309-6.617 1.654-3.309 1.654-8.271 1.654-11.58 0-4.963 0-9.926-1.654-13.234z" />
<glyph unicode="&#xe60c;" d="M909.752 232.198v-110.017c0-103.669-203.107-186.182-454.876-186.182s-454.876 82.512-454.876 184.066v110.017c0 23.273 21.157 50.777 42.314 61.355l264.463 139.636c2.116 2.116 6.347 2.116 8.463 4.231 38.083-29.62 86.744-46.545 139.636-46.545s101.554 16.926 139.636 46.545c2.116 0 6.347-2.116 8.463-4.231l266.579-139.636c21.157-8.463 40.198-35.967 40.198-59.24zM679.14 708.231c0-137.521-101.554-249.653-228.496-249.653s-228.496 112.132-228.496 249.653c0 139.636 103.669 251.769 228.496 251.769 126.942 0 228.496-112.132 228.496-251.769z" horiz-adv-x="910" />
<glyph unicode="&#xe60d;" d="M683.221 960h-635.013c-26.597 0-48.208-21.61-48.208-49.87v-781.299c0-28.26 21.61-49.87 48.208-49.87h452.156c-16.623 38.234-26.597 79.792-26.597 124.675 0 8.312 0 16.623 1.662 24.935h-408.935v664.935h598.442v-408.935c21.61 8.312 43.221 14.961 66.494 16.623v408.935c0 28.26-21.61 49.87-48.208 49.87zM365.714 195.325c18.286 0 33.247-14.961 33.247-33.247s-14.961-33.247-33.247-33.247c-18.286 0-33.247 14.961-33.247 33.247s14.961 33.247 33.247 33.247zM772.987 421.403c119.688 0 216.104-98.078 216.104-217.766s-96.416-217.766-216.104-217.766-216.104 98.078-216.104 217.766 96.416 217.766 216.104 217.766v0zM772.987 471.273c-146.286 0-265.974-119.688-265.974-267.636s119.688-267.636 265.974-267.636 265.974 119.688 265.974 267.636-119.688 267.636-265.974 267.636v0zM917.61 185.351c0 4.987 1.662 11.636 1.662 18.286 0 4.987 0 11.636-1.662 16.623l-41.558 3.325c-3.325 13.299-8.312 24.935-14.961 36.571l26.597 31.584c-6.649 9.974-14.961 18.286-24.935 24.935l-33.247-26.597c-9.974 6.649-23.273 11.636-36.571 14.961l-3.325 41.558c-4.987 0-11.636 1.662-18.286 1.662-4.987 0-11.636 0-16.623-1.662l-3.325-41.558c-13.299-3.325-24.935-8.312-36.571-14.961l-31.584 26.597c-9.974-6.649-16.623-14.961-24.935-24.935l26.597-33.247c-6.649-9.974-11.636-23.273-14.961-36.571l-41.558-3.325c0-4.987-1.662-11.636-1.662-18.286 0-4.987 0-11.636 1.662-16.623l41.558-3.325c3.325-13.299 8.312-24.935 14.961-36.571l-26.597-31.584c6.649-9.974 14.961-16.623 24.935-24.935l33.247 26.597c9.974-6.649 23.273-11.636 36.571-14.961l3.325-41.558c4.987 0 11.636-1.662 18.286-1.662 4.987 0 11.636 0 16.623 1.662l3.325 41.558c13.299 3.325 24.935 8.312 36.571 14.961l31.584-26.597c9.974 6.649 16.623 14.961 24.935 24.935l-26.597 33.247c6.649 9.974 11.636 23.273 14.961 36.571l41.558 3.325zM812.883 192c0-1.662-1.662-4.987-3.325-6.649-3.325-6.649-9.974-13.299-18.286-16.623-1.662-1.662-4.987-1.662-6.649-3.325-3.325-3.325-6.649-3.325-11.636-3.325s-8.312 0-11.636 1.662c-1.662 0-4.987 1.662-6.649 3.325-6.649 3.325-13.299 9.974-16.623 18.286-1.662 1.662-1.662 4.987-3.325 6.649-3.325 3.325-3.325 6.649-3.325 11.636s0 8.312 1.662 11.636c0 1.662 1.662 4.987 3.325 6.649 3.325 6.649 9.974 13.299 18.286 16.623 1.662 1.662 4.987 1.662 6.649 3.325 3.325 3.325 6.649 3.325 11.636 3.325s8.312 0 11.636-1.662c1.662 0 4.987-1.662 6.649-3.325 6.649-3.325 13.299-9.974 16.623-16.623 1.662-1.662 1.662-4.987 3.325-6.649 3.325-4.987 3.325-8.312 3.325-13.299s0-8.312-1.662-11.636z" horiz-adv-x="1039" />
<glyph unicode="&#xe60e;" d="M230.112 204.464v-99.715c0-21.094 5.753-40.27 15.341-57.528-143.82 24.929-245.453 84.375-245.453 151.491v99.715c0 21.094 19.176 46.022 38.352 55.61l239.7 126.562c1.918 1.918 5.753 1.918 7.67 3.835 34.517-26.846 78.622-42.187 126.562-42.187 28.764 0 57.528 5.753 82.457 17.258 11.506-13.423 24.929-26.846 38.352-36.434-1.918 0-3.835-1.918-5.753-1.918l-239.7-126.562c-26.846-15.341-57.528-51.775-57.528-90.127zM431.461 635.925c0-44.105 9.588-86.292 28.764-124.644-17.258-3.835-34.517-7.67-51.775-7.67-115.056 0-207.101 101.633-207.101 226.277 0 128.479 93.963 230.112 207.101 230.112 65.199 0 122.727-32.599 161.079-84.375-80.539-42.187-138.067-134.232-138.067-239.7zM1093.034 204.464v-99.715c0-93.963-184.090-168.749-412.285-168.749s-412.285 74.787-412.285 166.831v99.715c0 21.094 19.176 46.022 38.352 55.61l239.7 126.562c1.918 1.918 5.753 1.918 7.67 3.835 34.517-26.846 78.622-42.187 126.562-42.187s92.045 15.341 126.562 42.187c1.918 0 5.753-1.918 7.67-3.835l241.618-126.562c19.176-7.67 36.434-32.599 36.434-53.693zM884.015 635.925c0-124.644-92.045-226.277-207.101-226.277s-207.101 101.633-207.101 226.277c0 126.562 93.963 228.195 207.101 228.195 115.056 0 207.101-101.633 207.101-228.195z" horiz-adv-x="1093" />
<glyph unicode="&#xe60f;" d="M809.29 679.226h-82.581v231.226c0 28.077-23.123 49.548-49.548 49.548h-627.613c-28.077 0-49.548-21.471-49.548-49.548v-776.258c0-26.426 21.471-49.548 49.548-49.548h379.871v-99.097c0-26.426 23.123-49.548 49.548-49.548h330.323c26.426 0 49.548 23.123 49.548 49.548v644.129c0 28.077-23.123 49.548-49.548 49.548zM677.161 654.452c0-4.955-6.606-8.258-16.516-8.258h-33.032c-9.91 0-16.516 3.303-16.516 8.258s6.606 8.258 16.516 8.258h33.032c9.91 0 16.516-3.303 16.516-8.258zM368.31 139.148c-19.819 0-36.335 16.516-36.335 36.335s16.516 36.335 36.335 36.335c19.819 0 36.335-16.516 36.335-36.335s-16.516-36.335-36.335-36.335zM66.065 233.29v660.645h594.581v-214.71h-181.677c-26.426 0-49.548-21.471-49.548-49.548v-396.387h-363.355zM649.084-14.452c-13.213 0-24.774 11.561-24.774 24.774s11.561 24.774 24.774 24.774 24.774-11.561 24.774-24.774c0-14.865-11.561-24.774-24.774-24.774zM809.29 51.613h-330.323v578.065h330.323v-578.065z" horiz-adv-x="859" />
<glyph unicode="&#xe610;" d="M792.151 960h-734.189c-30.913 0-57.962-25.117-57.962-57.962v-908.075c0-30.913 27.049-57.962 57.962-57.962h734.189c30.913 0 57.962 27.049 57.962 57.962v908.075c0 32.845-27.049 57.962-57.962 57.962zM421.192-9.902c-23.185 0-42.506 19.321-42.506 42.506s19.321 42.506 42.506 42.506 42.506-19.321 42.506-42.506c0-25.117-19.321-42.506-42.506-42.506zM772.83 109.887h-695.547v772.83h695.547v-772.83z" horiz-adv-x="850" />
<glyph unicode="&#xe612;" d="M909.424 960h-795.024c-62.88 0-114.4-51.536-114.4-114.56v-795.040c0-62.88 51.52-114.4 114.4-114.4h795.024c63.040 0 114.56 51.52 114.56 114.384v795.056c0.016 63.024-51.504 114.56-114.56 114.56zM512.48 808.16c93.12 0 168.48-82.72 168.48-184.64s-75.36-184.48-168.48-184.48c-92.96 0-168.48 82.56-168.48 184.48s75.52 184.64 168.48 184.64zM830.4 187.824v-70.384c0-32.64-26.88-45.12-26.88-45.12h-238.4l-16.32 98.72-27.84 166.24c-3.68-2.384-7.84-3.664-12.16-3.664s-8.48 1.28-12.16 3.664l-27.84-167.84-16.16-97.12h-231.52c0 0-46.72 14.080-46.72 45.12v70.384c0 0.336 0 2.896 0.8 6.72-0.32 0.976-0.8 1.92-0.8 2.896v70.384c0 1.28 5.12 27.2 29.6 41.28l206.24 112.336c0 0 30.080-19.040 71.2-26.896-0.48-2.544-0.8-5.28-0.8-8.16 0-20.32 12.64-36.8 28.16-36.8 15.68 0 28.32 16.48 28.32 36.8 0 2.56-0.16 4.976-0.64 7.36 43.84 7.040 76.176 27.68 76.176 27.68l188.16-112.336c32.624-15.84 29.6-41.28 29.6-41.28v-70.384c0-0.816 0-1.76-0.16-2.56 0.448-4.32 0.144-7.040 0.144-7.040z" />
<glyph unicode="&#xe613;" d="M836.41 280.202c-13.768 22.373-36.141 41.304-61.956 56.793-27.536 17.21-60.235 32.699-98.097 44.746-37.862 13.768-80.887 25.815-129.076 37.862-5.163 1.721-8.605 1.721-13.768 3.442v-129.076c65.398-10.326 118.75-32.699 111.866-84.329-5.163-36.141-53.351-58.514-111.866-72.282v-137.681c10.326 1.721 22.373 1.721 32.699 3.442 58.514 6.884 108.424 18.931 151.449 36.141s77.445 37.862 103.261 65.398c25.815 27.536 37.862 60.235 37.862 99.818 0 29.257-6.884 53.351-22.373 75.724zM161.775 137.358c-56.793 12.047-110.145 29.257-161.775 53.351v-158.333c51.63-13.768 98.097-22.373 158.333-29.257 53.351-5.163 110.145-8.605 168.659-10.326v125.634c-55.072 1.721-111.866 6.884-165.217 18.931zM326.992 598.588v118.75c-12.047-1.721-24.094-3.442-36.141-5.163-56.793-8.605-106.703-20.652-149.728-37.862s-77.445-39.583-103.261-65.398c-25.815-25.815-37.862-58.514-37.862-94.655 0-46.467 22.373-87.771 68.84-120.471s115.308-61.956 209.963-84.329c17.21-3.442 32.699-8.605 48.188-12.047v146.286c-60.235 13.768-110.145 34.42-115.308 72.282-5.163 49.909 49.909 74.003 115.308 82.608zM674.635 719.059c-41.304 3.442-89.492 5.163-141.123 6.884v-125.634c18.931 0 39.583-1.721 58.514-3.442 24.094-1.721 49.909-5.163 75.724-8.605s49.909-8.605 74.003-15.489c24.094-6.884 49.909-13.768 67.119-22.373v148.007c-51.63 8.605-86.050 15.489-134.239 20.652zM378.622-64v843.294h-110.145l161.775 180.706 161.775-180.706h-110.145v-843.294z" horiz-adv-x="859" />
<glyph unicode="&#xe614;" d="M197.874 310.312v-85.746c0-18.138 4.947-34.628 13.192-49.469-123.671 21.436-211.066 72.554-211.066 130.267v85.746c0 18.138 16.49 39.575 32.979 47.82l206.119 108.831c1.649 1.649 4.947 1.649 6.596 3.298 29.681-23.085 67.607-36.277 108.831-36.277 24.734 0 49.469 4.947 70.905 14.841 9.894-11.543 21.436-23.085 32.979-31.33-1.649 0-3.298-1.649-4.947-1.649l-206.119-108.831c-23.085-13.192-49.469-44.522-49.469-77.501zM371.014 681.327c0-37.926 8.245-74.203 24.734-107.182-14.841-3.298-29.681-6.596-44.522-6.596-98.937 0-178.087 87.395-178.087 194.576 0 110.48 80.799 197.874 178.087 197.874 56.064 0 105.533-28.032 138.512-72.554-69.256-36.277-118.725-115.427-118.725-206.119zM593.623 203.13c0-44.522 9.894-85.746 26.383-123.671-11.543 0-26.383 0-37.926 0-196.225 0-356.174 64.309-356.174 145.108v85.746c0 18.138 18.138 39.575 34.628 47.82l207.768 108.831c1.649 1.649 4.947 1.649 6.596 3.298 29.681-23.085 69.256-36.277 110.48-36.277s79.15 13.192 108.831 36.277c1.649 0 4.947-1.649 6.596-3.298l26.383-13.192c-79.15-54.415-133.565-146.757-133.565-250.641zM760.167 681.327c0-107.182-79.15-194.576-178.087-194.576s-178.087 87.395-178.087 194.576c0 108.831 80.799 196.225 178.087 196.225 98.937 0 178.087-87.395 178.087-196.225zM1033.894 184.992c0 4.947 1.649 11.543 1.649 18.138 0 4.947 0 11.543-1.649 16.49l-41.224 3.298c-3.298 13.192-8.245 24.734-14.841 36.277l26.383 31.33c-6.596 9.894-14.841 18.138-24.734 24.734l-32.979-26.383c-9.894 6.596-23.085 11.543-36.277 14.841l-3.298 41.224c-4.947 0-11.543 1.649-18.138 1.649-4.947 0-11.543 0-16.49-1.649l-3.298-41.224c-13.192-3.298-24.734-8.245-36.277-14.841l-31.33 26.383c-9.894-6.596-16.49-14.841-24.734-24.734l26.383-32.979c-6.596-9.894-11.543-23.085-14.841-36.277l-41.224-3.298c0-4.947-1.649-11.543-1.649-18.138 0-4.947 0-11.543 1.649-16.49l41.224-3.298c3.298-13.192 8.245-24.734 14.841-36.277l-26.383-31.33c6.596-9.894 14.841-16.49 24.734-24.734l32.979 26.383c9.894-6.596 23.085-11.543 36.277-14.841l3.298-41.224c4.947 0 11.543-1.649 18.138-1.649 4.947 0 11.543 0 16.49 1.649l3.298 41.224c13.192 3.298 24.734 8.245 36.277 14.841l31.33-26.383c9.894 6.596 16.49 14.841 24.734 24.734l-26.383 32.979c6.596 9.894 11.543 23.085 14.841 36.277l41.224 3.298zM930.010 189.939c0-1.649-1.649-4.947-3.298-6.596-3.298-6.596-9.894-13.192-18.138-16.49-1.649-1.649-4.947-1.649-6.596-3.298-3.298-1.649-8.245-1.649-11.543-1.649-4.947 0-8.245 0-11.543 1.649-1.649 0-4.947 1.649-6.596 3.298-6.596 3.298-13.192 9.894-16.49 18.138-1.649 1.649-1.649 4.947-3.298 6.596-1.649 3.298-1.649 8.245-1.649 11.543 0 4.947 0 8.245 1.649 11.543 0 1.649 1.649 4.947 3.298 6.596 3.298 6.596 9.894 13.192 18.138 16.49 1.649 1.649 4.947 1.649 6.596 3.298 3.298 1.649 8.245 1.649 11.543 1.649 4.947 0 8.245 0 11.543-1.649 1.649 0 4.947-1.649 6.596-3.298 6.596-3.298 13.192-9.894 16.49-16.49 1.649-1.649 1.649-4.947 3.298-6.596 1.649-3.298 1.649-8.245 1.649-11.543 0-4.947 0-8.245-1.649-13.192zM890.435 419.143c118.725 0 214.364-97.288 214.364-216.013s-95.639-216.013-214.364-216.013-214.364 97.288-214.364 216.013 97.288 216.013 214.364 216.013zM890.435 468.612c-145.108 0-263.833-118.725-263.833-265.481s118.725-265.481 263.833-265.481c145.108 0 263.833 118.725 263.833 265.481s-117.076 265.481-263.833 265.481v0z" horiz-adv-x="1154" />
<glyph unicode="&#xe615;" d="M909.6 960h-795.040c-63.040 0-114.56-51.536-114.56-114.56v-795.056c0-62.88 51.52-114.384 114.56-114.384h795.040c62.88 0 114.4 51.504 114.4 114.384v795.056c0 63.024-51.52 114.56-114.4 114.56zM826.72 79.504h-624v736h624v-736zM250.72 767.52v-560h528v560h-528zM545.44 319.504h-74.88v128h-123.84v80h128v128h70.56l0.16-128h125.28l0.16-80h-125.6l0.16-128zM542.176 146.576c0 16.624-13.472 30.128-30.096 30.128-16.64 0-30.112-13.504-30.112-30.128 0-16.56 13.472-30.064 30.112-30.064 16.624 0 30.096 13.488 30.096 30.064z" />
<glyph unicode="&#xe616;" d="M909.284 960h-794.743c-63.029 0-114.54-51.527-114.54-114.54v-794.919c0-63.013 51.511-114.54 114.54-114.54h794.743c63.029 0 114.54 51.527 114.54 114.54v794.919c0 63.013-51.511 114.54-114.54 114.54zM405.21 856.482c89.905 0 162.692-79.65 162.692-178.209 0-98.383-72.787-178.049-162.692-178.049-89.745 0-162.532 79.65-162.532 178.049 0 98.559 72.787 178.209 162.532 178.209zM123.979 223.631c0 0-27.995 3.215-27.995 43.209v67.988c0 0-1.92 30.219 19.997 39.993l191.967 108.461c0 0 101.902-65.589 187.968 0l71.988-38.729v-3.023c-64.949-49.112-107.022-121.915-107.022-217.899h-336.902zM729.955-4.010c-129.258 0-234.040 104.798-234.040 234.056 0 129.098 104.782 233.88 234.040 233.88 129.098 0 233.88-104.766 233.88-233.88 0-129.258-104.782-234.056-233.88-234.056zM703.879 47.661v30.091c-31.995 1.568-64.053 10.19-82.482 20.988l14.621 56.806c20.364-11.118 49.208-21.308 80.706-21.308 27.675 0 46.696 10.622 46.696 30.059 0 18.493-15.629 30.251-51.559 42.313-51.991 17.501-80.818 41.801-80.818 88.977 0 42.809 24.844 76.355 88.833 86.545v33.466h47.992v-30.091c31.995-1.504 47.656-8.255 63.653-15.997l-17.565-54.871c-12.622 5.119-36.634 16.365-71.684 16.365-31.563 0-42.665-13.63-42.665-27.179 0-16.061 16.637-26.315 57.942-41.737 57.862-20.428 81.026-47.304 81.026-90.992 0-43.305-22.716-80.178-86.705-89.985v-33.466h-47.992z" />
<glyph unicode="&#xe617;" d="M390.69 223.22c0-44.599 8.92-87.415 26.76-126.662-10.704 0-21.408 0-32.111 0-214.077 0-385.338 69.575-385.338 155.206v92.767c0 19.624 17.84 42.815 35.679 51.735l222.997 117.742c1.784 1.784 5.352 1.784 7.136 3.568 32.111-24.976 73.143-39.247 117.742-39.247s85.631 14.272 117.742 39.247c1.784 0 5.352-1.784 7.136-3.568l32.111-17.84c-89.199-55.303-149.854-156.99-149.854-272.948zM572.655 747.707c0-115.958-85.631-210.509-192.669-210.509s-192.669 94.551-192.669 210.509c0 117.742 87.415 212.293 192.669 212.293 107.038 0 192.669-94.551 192.669-212.293zM711.805 458.704c128.446 0 231.916-105.254 231.916-233.7s-103.47-233.7-231.916-233.7-231.916 105.254-231.916 233.7 103.47 233.7 231.916 233.7zM711.805 512.223c-156.99 0-285.436-128.446-285.436-287.22s128.446-287.22 285.436-287.22 285.436 128.446 285.436 287.22-128.446 287.22-285.436 287.22v0zM865.226 205.38c0 5.352 1.784 12.488 1.784 19.624 0 5.352 0 12.488-1.784 17.84l-44.599 3.568c-3.568 14.272-8.92 26.76-16.056 39.247l28.544 33.895c-7.136 10.704-16.056 19.624-26.76 26.76l-35.679-28.544c-10.704 7.136-24.976 12.488-39.247 16.056l-3.568 44.599c-5.352 0-12.488 1.784-19.624 1.784-5.352 0-12.488 0-17.84-1.784l-3.568-44.599c-14.272-3.568-26.76-8.92-39.247-16.056l-33.895 28.544c-10.704-7.136-17.84-16.056-26.76-26.76l28.544-35.679c-7.136-10.704-12.488-24.976-16.056-39.247l-44.599-3.568c0-5.352-1.784-12.488-1.784-19.624 0-5.352 0-12.488 1.784-17.84l44.599-3.568c3.568-14.272 8.92-26.76 16.056-39.247l-26.76-32.111c7.136-10.704 16.056-17.84 26.76-26.76l35.679 28.544c10.704-7.136 24.976-12.488 39.247-16.056l3.568-44.599c5.352 0 12.488-1.784 19.624-1.784 5.352 0 12.488 0 17.84 1.784l3.568 44.599c14.272 3.568 26.76 8.92 39.247 16.056l33.895-28.544c10.704 7.136 17.84 16.056 26.76 26.76l-28.544 35.679c7.136 10.704 12.488 24.976 16.056 39.247l42.815 1.784zM754.62 210.732c0-1.784-1.784-5.352-3.568-7.136-3.568-7.136-10.704-14.272-19.624-17.84-1.784-1.784-5.352-1.784-7.136-3.568-3.568-1.784-8.92-1.784-12.488-1.784-5.352 0-8.92 0-12.488 1.784-1.784 0-5.352 1.784-7.136 3.568-7.136 3.568-14.272 10.704-17.84 19.624-1.784 1.784-1.784 5.352-3.568 7.136-1.784 3.568-1.784 8.92-1.784 12.488 0 5.352 0 8.92 1.784 12.488 0 1.784 1.784 5.352 3.568 7.136 3.568 7.136 10.704 14.272 19.624 17.84 1.784 1.784 5.352 1.784 7.136 3.568 3.568 1.784 8.92 1.784 12.488 1.784 5.352 0 8.92 0 12.488-1.784 1.784 0 5.352-1.784 7.136-3.568 7.136-3.568 14.272-10.704 17.84-17.84 1.784-1.784 1.784-5.352 3.568-7.136 1.784-3.568 1.784-8.92 1.784-12.488 0-5.352-1.784-10.704-1.784-14.272z" horiz-adv-x="997" />
<glyph unicode="&#xe618;" d="M428.777 960c-237.004 0-428.777-191.774-428.777-428.777s191.774-428.777 428.777-428.777c39.802 0 79.604 5.428 115.788 16.283-10.855 32.565-18.092 68.749-18.092 104.933v3.618c-12.664-18.092-25.329-36.184-41.611-54.276l-12.664-14.473c-5.428 0-12.664-1.809-18.092-1.809v146.544h83.223c3.618 18.092 10.855 36.184 18.092 52.466h-101.314v133.88h159.208c0-16.283-1.809-32.565-3.618-48.848 45.23 50.657 104.933 86.841 173.682 101.314h-117.597c-3.618 52.466-12.664 101.314-23.519 146.544h126.643c19.901-43.42 32.565-92.269 34.375-142.926 16.283 1.809 32.565 3.618 48.848 3.618h3.618c-9.046 227.958-197.201 410.686-426.968 410.686zM296.707 882.205c-16.283-30.756-37.993-79.604-57.894-139.307h-121.216c43.42 63.322 104.933 112.17 179.11 139.307zM88.65 688.622h135.689c-10.855-45.23-19.901-94.078-21.71-146.544h-148.353c0 52.466 12.664 103.124 34.375 146.544zM95.887 357.541c-21.71 41.611-36.184 85.032-41.611 132.071h144.735c1.809-43.42 7.237-88.65 19.901-132.071h-123.025zM130.261 303.265h106.742c16.283-43.42 37.993-85.032 68.749-126.643-68.749 25.329-130.261 68.749-175.491 126.643zM251.477 489.611h148.353v-132.071h-126.643c-12.664 43.42-19.901 88.65-21.71 132.071zM385.357 163.958c-39.802 45.23-68.749 92.269-90.459 139.307h106.742v-144.735c-3.618 0-7.237 0-10.855 0l-5.428 5.428zM399.83 147.675v0 0 0zM401.64 543.887h-148.353c1.809 52.466 10.855 101.314 23.519 146.544h124.834v-146.544zM401.64 742.898h-108.551c30.756 86.841 66.94 144.735 70.558 151.972l5.428 7.237c10.855 1.809 21.71 3.618 32.565 3.618v-162.827zM454.106 905.724c12.664 0 23.519-1.809 36.184-3.618l5.428-7.237c1.809-1.809 41.611-61.512 74.177-150.163h-115.788v161.018zM454.106 543.887v146.544h132.071c12.664-45.23 21.71-94.078 25.329-146.544h-157.399zM625.979 742.898c-19.901 57.894-43.42 106.742-59.703 137.498 70.558-27.138 130.261-75.986 171.873-137.498h-112.17zM987.816 259.845c-1.809 3.618-1.809 7.237-3.618 9.046l57.894 21.71c1.809-5.428 3.618-9.046 3.618-14.473l-57.894-16.283zM971.534 297.837c-3.618 5.428-7.237 10.855-12.664 16.283l47.039 39.802c7.237-7.237 12.664-16.283 18.092-23.519l-52.466-32.565zM732.721 297.837l-52.466 32.565c5.428 9.046 10.855 16.283 18.092 23.519l47.039-41.611c-3.618-3.618-9.046-9.046-12.664-14.473zM935.35 335.83c-5.428 3.618-10.855 7.237-18.092 10.855l28.947 54.276c9.046-5.428 18.092-10.855 25.329-16.283l-36.184-48.848zM768.905 335.83l-36.184 50.657c7.237 5.428 16.283 10.855 25.329 16.283l28.947-54.276c-7.237-5.428-12.664-9.046-18.092-12.664zM888.311 357.541c-7.237 1.809-14.473 3.618-19.901 3.618l7.237 61.512c10.855-1.809 19.901-3.618 28.947-5.428l-16.283-59.703zM815.943 357.541l-16.283 59.703c9.046 1.809 19.901 3.618 28.947 5.428l7.237-61.512c-5.428 0-12.664-1.809-19.901-3.618zM716.438 259.845l-59.703 16.283c1.809 5.428 3.618 9.046 3.618 14.473l57.894-21.71c0-3.618-1.809-5.428-1.809-9.046zM805.088 239.943l-54.276-12.664-72.367-16.283 72.367-16.283 54.276-12.664c9.046-16.283 27.138-25.329 47.039-25.329 30.756 0 56.085 25.329 56.085 56.085s-25.329 56.085-56.085 56.085c-19.901-1.809-37.993-12.664-47.039-28.947zM852.127 457.046c128.452 0 231.576-104.933 231.576-231.576s-104.933-231.576-231.576-231.576-231.576 104.933-231.576 231.576 103.124 231.576 231.576 231.576v0zM852.127 514.94c-159.208 0-289.47-130.261-289.47-289.47s130.261-289.47 289.47-289.47 289.47 130.261 289.47 289.47c0 159.208-130.261 289.47-289.47 289.47v0z" horiz-adv-x="1142" />
<glyph unicode="&#xe619;" d="M294.355 949.296l-76.711-244.404c0 0-82.063 7.136-73.143-103.47s53.519-324.683 53.519-324.683 19.624-37.463 73.143-26.76l137.366-221.213-101.686-5.352c0 0-237.268-33.895-305.059 449.561-14.272 173.045 51.735 374.634 74.927 412.098s96.334 99.902 217.645 64.223zM317.547 940.376l-76.711-239.052c0 0 51.735-12.488 82.063 19.624l51.735 160.557c0 1.784-24.976 58.871-57.087 58.871zM447.777 62.662c-10.704-14.272-23.192-23.192-23.192-23.192l-130.23 214.077c21.408 24.976 82.063 5.352 82.063 5.352l30.328-49.951c1.784-53.519 17.84-103.47 41.031-146.286zM693.965 223.22l-121.31-117.742c-1.784 3.568-5.352 8.92-5.352 12.488v39.247c0 8.92 10.704 17.84 17.84 21.408l96.334 49.951c1.784 0 3.568 1.784 3.568 1.784 1.784-3.568 5.352-5.352 8.92-7.136zM888.418 157.213v-39.247c0-35.679-69.575-66.007-158.774-66.007-35.679 0-67.791 5.352-94.551 14.272 0 0-1.784 0-1.784 0v0l158.774 158.774 83.847-44.599c8.92-5.352 12.488-16.056 12.488-23.192zM813.491 342.746l-101.686-101.686c-33.895 10.704-58.871 44.599-58.871 85.631 0 49.951 35.679 89.199 82.063 89.199 37.463 0 71.359-32.111 78.495-73.143zM733.213 506.871c-156.99 0-285.436-128.446-285.436-285.436s128.446-285.436 285.436-285.436 285.436 128.446 285.436 285.436-126.662 285.436-285.436 285.436zM501.296 221.436c0 128.446 103.47 231.916 231.916 231.916 58.871 0 114.174-23.192 155.206-60.655l-326.467-326.467c-37.463 41.031-60.655 96.334-60.655 155.206zM733.213-10.481c-55.303 0-107.038 19.624-146.286 51.735l326.467 326.467c32.111-39.247 51.735-90.983 51.735-146.286 1.784-126.662-103.47-231.916-231.916-231.916z" horiz-adv-x="1020" />
<glyph unicode="&#xe61a;" d="M909.44 960h-794.88c-63.040 0-114.56-51.52-114.56-114.384v-795.216c0-62.88 51.52-114.4 114.56-114.4h794.88c63.040 0 114.56 51.52 114.56 114.4v795.216c0 62.864-51.52 114.384-114.56 114.384zM616 720.176c0 31.824 24.16 57.6 56 57.6s56-25.76 56-57.6v-176.48h-112v176.48zM296 720.176c0 31.824 24.16 57.6 56 57.6s56-25.76 56-57.6v-176.48h-112v176.48zM768 406.896c0 0-3.68-167.216-179.68-231.216h-1.44c0.336 0 1.92-1.904 1.92-5.28 0-42.224-34.24-72-76.48-72-42.080 0-76.32 31.216-76.32 73.44 0 3.376 1.44 3.84 1.92 3.84h-2.080c-176.16 64-179.84 231.216-179.84 231.216v120.784h512v-120.784z" />
<glyph unicode="&#xe61b;" d="M909.568 960h-795.152c-62.889 0-114.416-51.527-114.416-114.4v-795.168c0-62.889 51.527-114.416 114.416-114.416h795.152c63.049 0 114.576 51.543 114.576 114.416v795.168c0 62.873-51.527 114.4-114.576 114.4zM560.719 145.966v-68.17h-98.574v61.289c-65.769 3.024-133.139 20.787-170.744 42.566l28.164 115.36c41.446-22.723 99.054-43.35 163.063-43.35 56.328 0 94.397 21.603 94.397 61.129 0 37.605-31.668 61.097-104.815 85.756-105.615 35.509-177.145 84.796-177.145 180.505 0 86.892 68.346 155.046 167.063 175.689v61.001h98.574v-54.088c65.929-2.896 109.135-16.802 141.78-32.485l-29.46-111.536c-25.604 10.882-71.37 33.605-142.404 33.605-64.169 0-84.988-27.668-84.988-55.208 0-32.645 34.405-53.287 118.273-84.972 117.457-41.286 168.664-95.709 168.664-184.506 0.016-87.692-56.632-162.727-171.848-182.586z" />
<glyph unicode="&#xe61c;" d="M909.616 960h-795.056c-63.040 0-114.56-51.52-114.56-114.384v-795.056c0-63.040 51.52-114.56 114.56-114.56h795.040c62.88 0 114.4 51.52 114.4 114.56v795.056c0 62.864-51.52 114.384-114.384 114.384zM584.48 77.776h-140.48v140.464h140.48v-140.464zM748.8 519.68c-17.6-27.68-55.024-65.28-112.32-112.944-29.6-24.656-48-44.496-55.2-59.536-7.2-14.88-10.384-41.744-9.76-80.464h-127.52c-0.32 18.368-0.48 29.6-0.48 33.6 0 41.28 6.896 75.184 20.48 101.904 13.616 26.72 40.976 56.656 81.92 90.080 41.12 33.28 65.6 55.040 73.6 65.44 12.336 16.336 18.4 34.24 18.4 53.92 0 27.36-10.88 50.88-32.64 70.24-21.92 19.536-51.36 29.28-88.32 29.28-35.68 0-65.456-10.080-89.456-30.384-24-20.48-40.464-51.36-49.6-93.12l-128.96 16c3.664 59.68 29.104 110.4 76.32 152 47.2 41.76 109.12 62.56 185.76 62.56 80.64 0 144.8-21.12 192.464-63.2 47.68-42.24 71.536-91.36 71.536-147.36 0.016-30.88-8.768-60.32-26.224-88.016z" />
<glyph unicode="&#xe61d;" d="M908.8 960h-793.6c-64 0-115.2-51.2-115.2-115.2v-795.2c0-62.4 51.2-113.6 115.2-113.6h795.2c62.4 0 115.2 51.2 115.2 115.2v793.6c-1.6 64-52.8 115.2-116.8 115.2zM352 777.6l4.8-140.8c-14.4-33.6-57.6-38.4-57.6-38.4l-8 208c24 9.6 60.8-28.8 60.8-28.8zM544 86.4c0 0-176-94.4-366.4 264-62.4 132.8-68.8 308.8-60.8 344s46.4 105.6 152 112l9.6-212.8c0 0-65.6-17.6-28.8-102.4 38.4-84.8 134.4-238.4 134.4-238.4s25.6-24 65.6 0l169.6-134.4-75.2-32zM632 134.4l-161.6 131.2c9.6 24 62.4 27.2 62.4 27.2l108.8-88c16-33.6-9.6-70.4-9.6-70.4zM712 315.2c-129.6 0-233.6 104-233.6 233.6s104 233.6 233.6 233.6 233.6-105.6 233.6-233.6c0-129.6-105.6-233.6-233.6-233.6zM820.8 571.2c-3.2 14.4-8 27.2-16 38.4l28.8 35.2c-8 9.6-16 19.2-25.6 25.6l-35.2-28.8c-11.2 8-24 12.8-38.4 16l-4.8 46.4c-6.4 0-12.8 1.6-19.2 1.6s-12.8 0-17.6-1.6l-4.8-44.8c-14.4-3.2-27.2-8-38.4-16l-33.6 28.8c-9.6-8-19.2-16-27.2-25.6l28.8-35.2c-8-11.2-12.8-24-16-38.4l-44.8-4.8c-1.6-6.4-1.6-12.8-1.6-19.2s0-12.8 1.6-17.6l44.8-4.8c3.2-14.4 8-27.2 16-38.4l-28.8-35.2c8-9.6 16-19.2 25.6-27.2l35.2 28.8c11.2-8 24-12.8 38.4-16l4.8-44.8c6.4 0 12.8-1.6 19.2-1.6s12.8 0 17.6 1.6l4.8 44.8c14.4 3.2 27.2 8 38.4 16l35.2-28.8c9.6 8 19.2 16 25.6 27.2l-28.8 35.2c8 11.2 12.8 24 16 38.4l44.8 4.8c0 6.4 1.6 12.8 1.6 19.2s0 12.8-1.6 17.6l-44.8 3.2zM753.6 536c-1.6-3.2-1.6-4.8-3.2-8-4.8-8-11.2-14.4-19.2-19.2-1.6-1.6-4.8-1.6-8-3.2-4.8-1.6-8-1.6-12.8-1.6s-9.6 0-12.8 1.6c-3.2 0-4.8 1.6-8 3.2-8 4.8-14.4 11.2-19.2 19.2-1.6 3.2-1.6 4.8-3.2 8-1.6 4.8-1.6 8-1.6 12.8s0 9.6 1.6 12.8c0 3.2 1.6 4.8 3.2 8 4.8 8 11.2 14.4 19.2 19.2 3.2 1.6 4.8 1.6 8 3.2 4.8 1.6 8 1.6 12.8 1.6s9.6 0 12.8-1.6c3.2 0 4.8-1.6 8-3.2 8-4.8 14.4-11.2 19.2-19.2 1.6-1.6 1.6-4.8 3.2-8 1.6-4.8 1.6-8 1.6-12.8s0-9.6-1.6-12.8z" />
<glyph unicode="&#xe61e;" d="M909.44 960h-794.88c-63.36 0-114.56-51.2-114.56-114.56v-794.88c0-63.344 51.2-114.56 114.56-114.56h794.88c63.36 0 114.56 51.216 114.56 114.56v794.88c0 63.36-51.2 114.56-114.56 114.56zM619.84 307.36l-8.48-103.216-50.56 59.056-112.8-139.056v153.936l-293.12-67.024 231.040 172.944h-104l100.16 57.296-262.080 141.264 313.92-64.16-81.28 70.24 91.36-1.76-32 261.12 156.32-232 55.68 56v-92l182.4 156-147.2-239.36 174.4 21.44-133.28-59.2 124.176-80.784-148.336 6.064 204-260-260.32 183.2z" />
<glyph unicode="&#xe61f;" d="M578.080 467.36c1.92-6.4 2.88-12.64 2.88-19.36s-0.96-13.12-2.88-19.504c-1.12-3.536-2.72-7.376-4.64-10.72-6.56-12.176-16.48-21.936-29.6-28.656-3.2-1.6-6.896-3.184-11.040-4.32-6.72-2.080-13.76-3.2-20.8-3.2-7.2 0-14.256 1.12-21.28 3.2-3.68 1.12-7.68 2.88-11.36 4.64-12.48 6.544-22.56 16.336-29.28 28.96-1.6 3.040-3.040 6.56-4.16 10.256-2.080 6.4-3.040 12.8-3.040 19.344 0 6.72 0.976 13.12 3.2 19.68 0.96 3.52 2.56 7.2 4.48 10.56 6.384 12.16 16.464 21.92 29.44 28.64 3.36 1.6 7.024 3.2 11.024 4.32 6.896 2.080 13.76 3.2 20.976 3.2s14.24-1.12 21.12-3.2c3.824-1.12 7.824-2.72 11.52-4.64 12.48-6.56 22.384-16.32 28.8-28.32l0.16-0.32 0.336-0.48c1.584-2.88 3.024-6.4 4.144-10.080zM713.12 510.4c-3.68 12.32-8.64 24-14.56 35.2-19.68 37.76-50.72 68.8-88.336 88.64-11.2 5.92-23.024 11.040-35.36 14.88-20 6.24-40.96 9.44-62.88 9.44-21.76 0-42.56-3.2-62.4-9.28-12.32-3.84-24.16-8.8-35.2-14.72-37.744-19.68-68.8-50.56-88.64-88.32-5.904-11.2-11.024-23.040-14.88-35.36-6.24-20-9.44-40.96-9.44-62.88 0-21.76 3.2-42.56 9.28-62.4 3.84-12.336 8.64-24 14.56-35.2 19.84-37.744 50.72-68.8 88.464-88.624 11.2-5.936 23.040-11.040 35.376-14.896 20-6.24 40.96-9.44 62.88-9.44 21.6 0 42.56 3.2 62.24 9.28 12.336 3.824 24.16 8.8 35.36 14.72 37.76 19.664 68.64 50.544 88.64 88.336 5.92 11.184 10.896 23.024 14.72 35.344 6.256 20 9.616 40.96 9.616 62.88 0 21.76-3.36 42.56-9.44 62.4zM660.8 402.24c-2.88-8.976-6.56-17.44-10.88-25.744-14.896-27.376-37.76-49.76-65.76-64.176-8.16-4.336-16.96-7.824-26.080-10.72-14.56-4.32-30.080-6.72-46.080-6.72-16.16 0-31.84 2.384-46.56 6.896-9.12 2.72-17.92 6.384-26.24 10.72-27.84 14.56-50.72 36.96-65.28 64.464-4.48 8.16-8 16.816-10.896 25.76-4.464 14.384-6.88 29.44-6.88 45.28s2.4 31.2 7.040 45.76c2.88 8.96 6.544 17.44 10.88 25.76 14.72 27.36 37.6 49.92 65.6 64.16 8.336 4.32 17.12 7.84 26.256 10.72 14.56 4.32 29.92 6.72 46.080 6.72s31.664-2.4 46.56-6.88c9.104-2.72 17.744-6.4 26.080-10.72 28-14.56 50.88-36.96 65.44-64.48 4.48-8.16 8-16.8 10.88-25.76 4.48-14.4 6.896-29.44 6.896-45.28-0.016-15.84-2.416-31.2-7.056-45.76zM909.44 960h-795.056c-62.864 0-114.384-51.52-114.384-114.56v-794.88c0-63.040 51.52-114.56 114.384-114.56h795.040c63.056 0 114.576 51.52 114.576 114.56v794.88c0 63.040-51.52 114.56-114.56 114.56zM891.664 401.44l-110.384-10.080c-7.2-34.256-20.64-66.096-39.36-94.4l70.56-85.6c-18.896-24.16-40.816-45.76-64.976-64.816l-85.28 71.040c-28.16-18.544-60.16-32.16-94.56-39.2l-10.544-110.24c-14.736-1.76-29.92-2.72-45.12-2.72-15.84 0-31.2 0.96-46.56 2.88l-10.080 110.4c-34.24 7.2-66.080 20.64-94.4 39.36l-85.6-70.56c-24.16 18.88-45.92 40.8-64.8 64.976l71.040 85.12c-18.56 28.336-32.16 60.336-39.2 94.72l-110.24 10.56c-1.776 14.72-2.88 29.92-2.88 45.12 0 15.84 1.104 31.2 3.024 46.56l110.4 10.080c7.024 34.24 20.64 66.080 39.36 94.4l-70.56 85.6c18.88 24.16 40.8 45.76 64.8 64.8l85.28-71.040c28.336 18.56 60.336 32.16 94.56 39.2l10.72 110.24c14.736 1.76 29.776 2.88 45.136 2.88 15.84 0 31.2-1.12 46.56-3.040l10.080-110.4c34.080-7.040 66.080-20.64 94.384-39.36l85.616 70.56c24.16-18.88 45.744-40.8 64.8-64.96l-71.040-85.28c18.56-28.32 32-60.32 39.2-94.56l110.256-10.56c1.744-14.72 2.72-29.76 2.72-45.12-0.016-15.84-0.976-31.2-2.912-46.56z" />
<glyph unicode="&#xe620;" d="M909.44 960h-795.040c-62.88 0-114.4-51.52-114.4-114.56v-794.88c0-63.040 51.52-114.56 114.4-114.56h795.040c63.040 0 114.56 51.52 114.56 114.56v794.88c0 63.040-51.52 114.56-114.56 114.56zM507.024 814.24c91.536 0 165.616-81.28 165.616-181.6 0-100.16-74.080-181.44-165.616-181.44-91.52 0-165.744 81.28-165.744 181.44 0 100.32 74.24 181.6 165.744 181.6zM858.72 129.6c0-17.28-25.28-33.76-42.72-33.76h-613.76c-17.28 0-31.52 16.48-31.52 33.76v141.616c0 17.28 12.48 38.384 27.52 46.72l202.256 112.96c31.184-20 67.52-31.36 106.544-31.36 39.536 0 76.816 11.84 108.48 32.64l210.080-114.24c15.2-8.336 33.12-29.44 33.12-46.72v-141.616z" />
<glyph unicode="&#xe621;" d="M909.6 960h-795.040c-63.040 0-114.56-51.52-114.56-114.56v-794.88c0-63.040 51.52-114.56 114.56-114.56h795.040c62.88 0 114.4 51.52 114.4 114.56v794.88c0 63.040-51.52 114.56-114.4 114.56zM836.64 103.216h-649.28c-70.4 0-99.2 49.904-64 110.88l98.4 170.24c35.184 60.96 92.8 160.8 128 221.76l98.24 170.224c35.2 60.96 92.8 60.96 128 0l98.4-170.24c35.184-60.96 92.8-160.8 128-221.76l98.24-170.24c35.2-60.96 6.384-110.864-64-110.864zM512.288 687.168c39.936 0 53.76-10.768 53.76-29.952 0-13.056-2.304-28.416-6.144-59.136-13.056-85.264-22.288-172.048-33.024-266.528-2.32-6.912-29.184-7.68-31.504 0-9.968 94.464-19.968 181.264-32.256 266.528-4.608 30.72-7.68 46.080-7.68 59.136 0 19.184 13.84 29.952 56.080 29.952h0.768zM511.52 158.736c-29.184 0-52.24 21.504-52.24 54.528 0 31.504 23.040 54.528 52.992 54.528 30.72 0 52.992-23.024 52.992-54.528 0-33.024-22.288-54.528-52.992-54.528h-0.752z" />
<glyph unicode="&#xe622;" d="M909.44 960h-794.88c-63.36 0-114.56-51.2-114.56-114.56v-794.88c0-63.344 51.2-114.56 114.56-114.56h794.88c63.36 0 114.56 51.216 114.56 114.56v794.88c0 63.36-51.2 114.56-114.56 114.56zM405.28 856.8c89.92 0 162.72-79.84 162.72-178.24s-72.8-178.24-162.72-178.24c-89.76 0-162.56 79.84-162.56 178.24s72.8 178.24 162.56 178.24zM124 224c0 0-28 3.040-44 43.040v68c0 0-4 24 28 40l200 108.48c0 0 101.92-65.6 188 0l72-38.88v-2.88c-65.12-49.104-107.040-121.76-107.040-217.76h-336.96zM730.080-3.856c-129.28 0-234.080 104.816-234.080 234.096 0 129.12 104.8 233.92 234.080 233.92 129.12 0 233.92-104.784 233.92-233.92 0-129.28-104.8-234.096-233.92-234.096zM889.088 329.888l-59.376 59.408-99.728-99.728-99.68 99.696-59.44-59.408 99.712-99.696-99.712-99.68 59.44-59.408 99.68 99.68 99.68-99.68 59.424 59.408-99.712 99.68z" />
<glyph unicode="&#xe623;" d="M909.44 960h-795.056c-62.864 0-114.384-51.52-114.384-114.4v-795.040c0-62.88 51.52-114.56 114.384-114.56h795.040c63.040 0 114.56 51.68 114.56 114.56v795.040c0.016 62.88-51.504 114.4-114.544 114.4zM512 821.6c123.52 0 224-115.84 224-258.56s-100.48-257.92-224-257.92c-124.16 0-224 115.2-224 257.92s99.84 258.56 224 258.56zM896 64h-768v203.36c32 140 149.44 129.6 149.44 129.6 50.24-83.84 134.72-138.88 230.24-138.88 95.536 0 180.976 54.88 231.2 138.56l1.92 0.32c0 0 123.2 10.4 155.2-129.6v-203.36zM312.32 632.8v-142.080h398.080v142.080h-398.080zM459.52 531.68h-99.84v55.68h99.84v-55.68zM661.744 531.68h-99.824v55.68h99.824v-55.68z" />
<glyph unicode="&#xe624;" d="M882.364 561.544c-6.081 6.881-15.026 11.042-27.028 12.482-7.041 0.8-27.54 1.28-61.289 1.28h-41.126v-82.092h47.047c27.828 0 45.286 0.32 52.007 1.12 12.322 1.6 21.923 5.761 28.964 12.802s10.561 16.322 10.561 27.684c-0.016 11.042-3.056 20.003-9.137 26.724zM896.766 412.723c-5.121 7.521-12.642 12.962-22.403 16.322-9.745 3.36-30.884 4.961-63.529 4.961h-57.928v-94.877h66.409c25.748 0 42.246 0.784 49.111 2.224 10.722 1.936 19.363 6.561 26.1 14.098 6.721 7.521 10.081 17.602 10.081 30.244 0 10.545-2.72 19.651-7.841 27.028zM896.766 412.723c-5.121 7.521-12.642 12.962-22.403 16.322-9.745 3.36-30.884 4.961-63.529 4.961h-57.928v-94.877h66.409c25.748 0 42.246 0.784 49.111 2.224 10.722 1.936 19.363 6.561 26.1 14.098 6.721 7.521 10.081 17.602 10.081 30.244 0 10.545-2.72 19.651-7.841 27.028zM851.96 494.335c12.322 1.6 21.923 5.761 28.964 12.802s10.561 16.322 10.561 27.684c0 11.042-3.040 20.003-9.121 26.724-6.081 6.881-15.026 11.042-27.028 12.482-7.041 0.8-27.54 1.28-61.289 1.28h-41.126v-82.092h47.047c27.812 0 45.27 0.32 51.991 1.12zM909.568 960h-795.152c-62.889 0-114.416-51.527-114.416-114.416v-795.008c0-63.033 51.527-114.576 114.416-114.576h795.152c63.049 0 114.576 51.543 114.576 114.576v795.008c0 62.889-51.527 114.416-114.576 114.416zM323.71 279.264l-31.028 80.651h-141.94l-29.284-80.651h-76.011l138.259 355.074h75.851l142.1-355.074h-77.947zM492.549 349.194v74.41h-107.055v68.97h107.055v74.25l156.342-108.815-156.342-108.815zM967.336 335.128c-7.537-15.218-17.762-27.38-30.724-36.501-12.978-9.105-28.98-14.722-48.007-16.962-12.002-1.28-40.822-2.080-86.572-2.384h-120.817v355.074h141.924c28.18 0 48.983-1.12 62.905-3.52 13.746-2.24 26.084-7.201 36.965-14.562 10.898-7.521 20.003-17.282 27.364-29.764 7.201-12.322 10.898-26.084 10.898-41.446 0-16.642-4.481-31.844-13.458-45.766-8.961-13.922-21.107-24.323-36.469-31.364 21.603-6.241 38.245-16.962 49.927-32.165 11.522-15.202 17.442-32.965 17.442-53.448-0.016-16.162-3.857-31.844-11.378-47.191zM874.363 429.045c-9.745 3.36-30.884 4.961-63.529 4.961h-57.928v-94.877h66.409c25.748 0 42.246 0.784 49.111 2.224 10.722 1.936 19.363 6.561 26.1 14.098 6.721 7.521 10.081 17.602 10.081 30.244 0 10.561-2.72 19.667-7.841 27.044-5.121 7.505-12.642 12.946-22.403 16.306zM851.96 494.335c12.322 1.6 21.923 5.761 28.964 12.802s10.561 16.322 10.561 27.684c0 11.042-3.040 20.003-9.121 26.724-6.081 6.881-15.026 11.042-27.028 12.482-7.041 0.8-27.54 1.28-61.289 1.28h-41.126v-82.092h47.047c27.812 0 45.27 0.32 51.991 1.12zM172.824 419.764h96.814l-48.967 131.859-47.847-131.859z" />
<glyph unicode="&#xe625;" d="M909.44 960h-794.88c-63.36 0-114.56-51.2-114.56-114.56v-794.88c0-63.344 51.2-114.56 114.56-114.56h794.88c63.36 0 114.56 51.216 114.56 114.56v794.88c0 63.36-51.2 114.56-114.56 114.56zM912 480h-466.72c0.96-5.28 1.76-10.56 2.4-16h464.32v-80h-64v64h-48v-64h-64v48h-10.56l-28-35.664-42.72 51.52-137.28 0.64-16-48.48h-60.16c-20.64-68.784-84.336-119.024-159.84-119.024-92.32-0.032-167.040 74.848-167.040 167.008s74.72 167.040 167.024 167.040c69.44 0 129.12-42.56 154.080-103.040h476.496v-32zM272 343.696c-64 2.096-103.264 47.824-103.264 105.744 0 57.904 55.264 109.152 103.264 111.248v-216.992z" />
<glyph unicode="&#xe626;" d="M909.6 960h-795.040c-63.040 0-114.56-51.52-114.56-114.4v-795.040c0-63.040 51.52-114.56 114.56-114.56h795.040c62.88 0 114.4 51.52 114.4 114.56v795.040c0 62.88-51.52 114.4-114.4 114.4zM816 83.664h-608v736h608v-736zM513.12 559.52l36.32-119.84h-76.8l35.84 119.84zM248 771.68v-560h528v560h-528zM588.8 304l-25.6 79.36h-106.88l-24.656-79.36h-70.064l115.68 358.4h70.080l115.2-358.4h-73.76zM542.16 146.704c0-16.622-13.474-30.096-30.096-30.096s-30.096 13.474-30.096 30.096c0 16.622 13.474 30.096 30.096 30.096s30.096-13.474 30.096-30.096z" />
<glyph unicode="&#xe627;" d="M909.44 960h-795.056c-62.864 0-114.384-51.52-114.384-114.4v-795.040c0-62.88 51.52-114.56 114.384-114.56h795.040c63.040 0 114.56 51.68 114.56 114.56v795.040c0.016 62.88-51.504 114.4-114.544 114.4zM816 80h-608v736h608v-736zM255.968 768h512v-560h-512v560zM536.64 146.704c0 16.624-13.472 30.128-30.096 30.128-16.64 0-30.112-13.504-30.112-30.128 0-16.56 13.472-30.064 30.112-30.064 16.624 0.016 30.096 13.504 30.096 30.064z" />
<glyph unicode="&#xe629;" d="M909.44 960h-794.88c-63.36 0-114.56-51.2-114.56-114.56v-794.88c0-63.344 51.2-114.56 114.56-114.56h794.88c63.36 0 114.56 51.216 114.56 114.56v794.88c0 63.36-51.2 114.56-114.56 114.56zM820.32 672l-293.28-297.44c0 0-16-16-30.736 0l-291.984 297.44h616zM172.96 648l194.080-196.64-194.080-196.656v393.296zM204.32 230.56l190.72 194.72 98.72-97.28c0 0 18.544-18.72 36 0l98.544 102.56 192-200h-615.984zM851.040 254.704l-196 196.656 196 196.64v-393.296z" />
<glyph unicode="&#xe62a;" d="M909.6 960h-795.040c-63.040 0-114.56-51.52-114.56-114.56v-794.88c0-63.040 51.52-114.56 114.56-114.56h795.040c63.040 0 114.56 51.536 114.56 114.56v794.88c0 63.040-51.52 114.56-114.56 114.56zM333.744 147.040c0 0-46.544-2.24-72 44.64l-108 184c0 0-14.384 44 8 69.28l35.68 60.16-56.96 35.36 164.64 2.24 86.544-146.064-51.808 27.824-49.456-93.104c0 0-12.16-19.376 14.096-19.68l179.040 1.904 3.040-164.64-152.816-1.92zM514.72 688.64c0 0-10.56 20.48-24-2.24l-88-156-143.84 79.68 74.56 133.28c0 0 16.8 43.040 70.24 41.44l220.976 0.16c0 0 42.080-9.6 52.8-41.6l34.24-60.96 59.040 31.68-80.16-143.84-169.76-1.76 49.92 30.88-56.016 89.28zM850.56 357.936l-105.44-185.456c0 0-30.896-34.544-64-27.824l-69.92 0.944-2.080-67.040-84.32 141.44 83.2 148 1.744-58.88 105.456 3.84c0 0 22.88-0.976 9.92 21.92l-91.040 154.24 140.96 84.8 78.096-131.36c-0.016 0 25.248-39.040-2.576-84.624z" />
<glyph unicode="&#xe62b;" d="M256 768v-544h528v544h-528zM530.24 298.032c-16.8-3.36-34.24-5.12-51.824-5.12-21.616 0-41.92 3.36-61.28 10.096-19.2 6.544-36.336 17.264-50.896 32.16-14.72 14.88-26.384 34.064-35.024 57.904-8.8 23.68-13.12 52.48-13.12 86.256 0 35.2 4.8 64.64 14.56 88.32s22.4 42.88 37.92 57.28c15.52 14.56 32.8 24.96 52 31.36 19.024 6.24 38.24 9.44 57.28 9.44 20.464 0 37.744-1.44 52-4.16 14.080-2.72 25.92-5.92 35.024-9.76l-13.744-59.36c-7.84 3.84-17.12 6.56-28 8.16-10.72 1.76-23.68 2.56-39.040 2.56-28.32 0-51.2-10.080-68.48-30.24-17.104-20.16-25.744-51.52-25.744-93.92 0-18.4 2.080-35.2 6.080-50.56 4.16-15.216 10.384-28.176 18.72-38.896 8.32-10.88 18.72-19.2 31.2-25.104 12.464-6.096 26.88-8.976 43.36-8.976 15.36 0 28.32 1.44 38.88 4.464 10.56 3.216 19.84 7.056 27.68 11.84l14.24-56.96c-10.912-7.808-24.832-13.424-41.792-16.784zM688 304h-64v352h64v-352zM914.88 960h-795.040c-63.040 0-119.84-51.728-119.84-114.768v-794.88c0-63.040 56.8-114.352 119.84-114.352h795.040c62.88 0 109.12 51.312 109.12 114.336v794.896c0 63.040-46.24 114.768-109.12 114.768zM832 80h-624v736h624v-736zM547.424 146.4c0-16.622-13.474-30.096-30.096-30.096s-30.096 13.474-30.096 30.096c0 16.622 13.474 30.096 30.096 30.096s30.096-13.474 30.096-30.096z" />
<glyph unicode="&#xe62c;" d="M114.496 960c-62.976 0-114.496-51.52-114.496-114.496v-795.024c0-62.976 51.52-114.48 114.496-114.48h795.024c62.96 0 114.48 51.504 114.48 114.48v795.024c0 62.976-51.52 114.496-114.48 114.496h-795.024zM147.2 566.080c0 137.76 112.16 249.76 249.92 249.76 137.6 0 249.744-112 249.744-249.76s-112.16-249.936-249.744-249.936c-137.76 0-249.92 112.176-249.92 249.936zM854.16 104.48c-25.904-25.872-83.552-10.608-128.064 33.904l-88.992 88.992c-44.512 44.512-59.776 102.128-33.92 128 25.872 25.856 83.488 10.608 128.032-33.888l89.072-89.024c44.56-44.512 59.792-102.112 33.872-127.984zM397.12 735.84c-93.76 0-169.92-76.16-169.92-169.76 0-93.76 76.16-169.936 169.92-169.936 93.6 0 169.744 76.176 169.744 169.936 0.016 93.6-76.144 169.76-169.744 169.76z" />
<glyph unicode="&#xe62d;" d="M512 710.56c0.32-0.16 0.48-0.32 0.64-0.64l102.56-105.92 44.16-45.44h-62.080v-168h-170.4v168h-62.080l147.2 152zM909.6 960h-795.040c-63.040 0-114.56-51.52-114.56-114.384v-795.056c0-63.040 51.52-114.56 114.56-114.56h795.040c62.88 0 114.4 51.52 114.4 114.56v795.056c0 62.864-51.52 114.384-114.4 114.384zM661.44 92.656h-298.72v165.904h298.72v-165.904zM661.28 494.56v-168h-298.4v168h-149.28l298.4 308 298.384-308h-149.104zM597.44 194.56h-170.72v-37.904h170.72v37.904z" />
<glyph unicode="&#xe62e;" d="M564.8 112c0-8-6.4-16-16-16h-64c-9.6 0-16 8-16 16s6.4 16 16 16h64c9.6 0 16-8 16-16zM908.8 960h-793.6c-64 0-115.2-51.2-115.2-115.2v-795.2c0-62.4 51.2-113.6 115.2-113.6h795.2c62.4 0 115.2 51.2 115.2 115.2v793.6c-1.6 64-52.8 115.2-116.8 115.2zM720 126.4c0-27.2-17.6-62.4-43.2-62.4h-320c-27.2 0-52.8 35.2-52.8 62.4v305.6l48-25.6v-232c0-8 11.2-30.4 20.8-30.4h288c9.6 0 11.2 22.4 11.2 30.4v225.6h48v-273.6zM673.6 454.4l1.6-8-86.4-25.6-140.8 36.8-92.8-36.8-3.2 8-48 11.2-33.6 308.8c-3.2 27.2 16 49.6 41.6 52.8l318.4 35.2c25.6 3.2 49.6-16 52.8-43.2l36.8-334.4-46.4-4.8zM622.4 755.2l-286.4-32c-9.6-1.6-14.4-9.6-14.4-17.6l30.4-267.2 96 36.8 140.8-36.8 83.2 25.6-32 276.8c0 9.6-8 14.4-17.6 14.4zM435.2 766.4l96 11.2c8 1.6 16 4.8 14.4 9.6 0 4.8-8 6.4-17.6 6.4l-96-11.2c-9.6-1.6-16-4.8-14.4-9.6 0-4.8 8-8 17.6-6.4z" />
<glyph unicode="&#xe62f;" d="M909.6 960h-795.040c-63.040 0-114.56-51.536-114.56-114.56v-794.896c0-63.024 51.52-114.544 114.56-114.544h795.040c62.88 0 114.4 51.52 114.4 114.544v794.896c0 63.024-51.52 114.56-114.4 114.56zM671.84 410.080c-27.36-31.36-91.84-124.336-151.36-352.336 0 0-2.4-14.88-8.48-14.88-5.92 0-8.48 14.88-8.48 14.88-60.96 234.080-127.52 325.44-153.6 354.4-53.92 45.92-88.16 114.24-88.16 190.72 0 138.24 112 250.24 250.24 250.24 138.256 0 250.4-112 250.4-250.24 0-77.6-35.376-146.864-90.56-192.784zM647.344 602.928c0 74.72-60.624 135.2-135.344 135.2-74.56 0-135.2-60.48-135.2-135.2s60.64-135.2 135.2-135.2c74.72-0.016 135.344 60.48 135.344 135.2z" />
<glyph unicode="&#xe630;" d="M909.44 960h-794.88c-63.040 0-114.56-51.52-114.56-114.4v-795.040c0-63.040 51.52-114.56 114.56-114.56h794.88c63.040 0 114.56 51.52 114.56 114.56v795.040c0 62.88-51.52 114.4-114.56 114.4zM795.2 270.72l-105.744-105.76-177.456 177.424-177.44-177.424-105.6 105.76 177.44 177.28-177.44 177.44 105.6 105.76 177.44-177.456 177.44 177.456 105.76-105.6-177.44-177.6 177.44-177.28z" />
<glyph unicode="&#xe631;" d="M909.44 960h-794.896c-63.024 0-114.544-51.536-114.544-114.56v-795.056c0-62.88 51.52-114.384 114.544-114.384h794.896c63.024 0 114.56 51.504 114.56 114.368v795.072c0 63.024-51.536 114.56-114.56 114.56zM868.32 63.504h-560v64h-160v529.296l173.44 190.72h402.56v-80h144v-704.016zM676.32 767.52v32h-320v-157.28l116 125.28zM468.32 692.464l-78.72-84.944h78.72zM196.32 175.504h112v414.88l16 17.136 14.704 16h-142.704zM308.32 761.28l-81.776-89.76h81.776zM516.32 719.52v-160h-160v-448h464v608h-304zM740.32 207.504h-304v48h304v-48zM740.32 303.504h-304v48h304v-48zM740.32 399.504h-304v48h304v-48z" />
<glyph unicode="&#xe632;" d="M729.6 449.6c-99.2 0-180.8-81.6-180.8-180.8s81.6-180.8 180.8-180.8c99.2 0 180.8 81.6 180.8 180.8s-81.6 180.8-180.8 180.8zM672 208h-48v112h48v-112zM832 208h-48v112h48v-112zM729.6 449.6c-99.2 0-180.8-81.6-180.8-180.8s81.6-180.8 180.8-180.8c99.2 0 180.8 81.6 180.8 180.8s-81.6 180.8-180.8 180.8zM672 208h-48v112h48v-112zM832 208h-48v112h48v-112zM908.8 960h-793.6c-64 0-115.2-51.2-115.2-115.2v-795.2c0-62.4 51.2-113.6 115.2-113.6h795.2c62.4 0 115.2 51.2 115.2 115.2v793.6c-1.6 64-52.8 115.2-116.8 115.2zM432 776c0 33.6 17.6 59.2 56 59.2s56-25.6 56-59.2v-168h-112v168zM144 776c0 33.6 24 59.2 56 59.2s56-25.6 56-59.2v-168h-112v168zM417.6 208c0-43.2-35.2-70.4-78.4-70.4s-76.8 27.2-78.4 68.8v0c-179.2 65.6-180.8 249.6-180.8 249.6v120h528v-81.6c-80-41.6-134.4-128-134.4-225.6 0-8 1.6-20.8 3.2-28.8-19.2-9.6-36.8-16-59.2-32zM729.6 43.2c-124.8 0-225.6 100.8-225.6 225.6s100.8 225.6 225.6 225.6c124.8 0 225.6-100.8 225.6-225.6-1.6-124.8-102.4-225.6-225.6-225.6zM729.6 449.6c-99.2 0-180.8-81.6-180.8-180.8s81.6-180.8 180.8-180.8c99.2 0 180.8 81.6 180.8 180.8s-81.6 180.8-180.8 180.8zM672 208h-48v112h48v-112zM832 208h-48v112h48v-112zM729.6 449.6c-99.2 0-180.8-81.6-180.8-180.8s81.6-180.8 180.8-180.8c99.2 0 180.8 81.6 180.8 180.8s-81.6 180.8-180.8 180.8zM672 208h-48v112h48v-112zM832 208h-48v112h48v-112zM729.6 449.6c-99.2 0-180.8-81.6-180.8-180.8s81.6-180.8 180.8-180.8c99.2 0 180.8 81.6 180.8 180.8s-81.6 180.8-180.8 180.8zM672 208h-48v112h48v-112zM832 208h-48v112h48v-112z" />
<glyph unicode="&#xe633;" d="M909.284 960h-794.903c-62.869 0-114.38-51.527-114.38-114.54v-794.919c0-63.013 51.511-114.54 114.38-114.54h794.903c63.029 0 114.54 51.527 114.54 114.54v794.919c0 63.013-51.511 114.54-114.54 114.54zM476.238 783.854l5.119-139.976c-14.078-33.898-58.070-38.873-58.070-38.873l-7.999 207.964c24.956 8.974 60.95-29.115 60.95-29.115zM669.325 93.093c0 0-175.97-94.048-366.017 263.955-61.909 131.977-67.988 307.947-59.99 343.941s46.072 105.902 151.974 111.981l10.078-211.964c0 0-66.069-18.077-27.995-102.062 37.913-83.97 134.537-237.879 134.537-237.879s25.436-23.996 65.429 0l169.891-134.041-77.907-33.93zM756.67 140.621l-162.212 130.218c9.598 24.78 61.909 27.179 61.909 27.179l108.781-88.145c16.637-32.794-8.479-69.252-8.479-69.252z" />
<glyph unicode="&#xe634;" d="M909.6 960h-795.040c-63.040 0-114.56-51.536-114.56-114.56v-795.056c0-62.88 51.52-114.384 114.56-114.384h795.040c62.88 0 114.4 51.504 114.4 114.384v795.056c0 63.024-51.52 114.56-114.4 114.56zM352 128h-160v160h160v-160zM352 368h-160v160h160v-160zM352 608h-160v160h160v-160zM592 128h-160v160h160v-160zM592 368h-160v160h160v-160zM592 608h-160v160h160v-160zM832 128h-160v160h160v-160zM832 368h-160v160h160v-160zM832 608h-160v160h160v-160z" />
<glyph unicode="&#xe636;" d="M909.6 960h-795.040c-63.040 0-114.56-51.52-114.56-114.56v-795.040c0-62.88 51.52-114.4 114.56-114.4h795.040c62.88 0 114.4 51.52 114.4 114.4v795.040c0 63.040-51.52 114.56-114.4 114.56zM408.8 781.44c0 28.976 19.040 52.48 48 52.48s48-23.52 48-52.48v-153.6h-96v153.6zM120.8 781.44c0 28.976 19.040 52.48 48 52.48s48-23.52 48-52.48v-153.6h-96v153.6zM392.16 300.496c0-38.56-31.040-68.336-69.6-68.336-38.4 0-69.6 30.256-69.6 68.816 0 3.024 1.28 6.88 1.76 6.88h-2.080c-160.48 48-163.84 204-163.84 204v100h464v-100c0 0 0-5.76-1.12-15.68-50.56-37.904-86.4-94.544-96.96-159.504-17.6-11.536-38.56-21.44-63.040-28.816h-1.28c0.48-0.016 1.76-4.336 1.76-7.36zM701.44 78.080c-120.336 0-218.080 97.744-218.080 217.904 0 120.336 97.744 218.080 218.080 218.080 120.16 0 217.92-97.744 217.92-218.080 0-120.144-97.76-217.904-217.92-217.904zM860.448 395.808l-59.376 59.36-99.744-99.744-99.664 99.744-59.44-59.424 99.712-99.696-99.712-99.68 59.44-59.44 99.664 99.744 99.68-99.744 59.44 59.44-99.712 99.68z" />
<glyph unicode="&#xe637;" d="M909.6 960h-795.040c-63.040 0-114.56-51.52-114.56-114.56v-794.88c0-63.040 51.52-114.56 114.56-114.56h795.040c62.88 0 114.4 51.52 114.4 114.56v794.88c0 63.040-51.52 114.56-114.4 114.56zM836.64 103.216h-649.28c-70.4 0-99.2 49.904-64 110.88l98.384 170.24c35.2 60.96 92.816 160.8 128 221.76l98.256 170.224c35.2 60.96 92.8 60.96 128 0l98.384-170.24c35.2-60.96 92.816-160.8 128-221.76l98.256-170.24c35.2-60.96 6.384-110.864-64-110.864zM474.88 122.768l-0.32-0.32-0.48 0.464c0.32-0.144 0.64-0.144 0.8-0.144zM490.24 153.008l4.32-4.96v4.64c-1.44 0-2.88 0.16-4.32 0.32zM512 605.168c-133.76 0-242.56-108.8-242.56-242.704 0-120.976 88.8-221.456 204.64-239.536 0.32-0.16 0.64-0.16 0.8-0.16s0.16 0 0.16 0c12.16-1.92 24.48-2.88 36.96-2.88 133.744 0 242.72 108.8 242.72 242.56 0 133.92-108.976 242.72-242.72 242.72zM434.56 558.304c-7.68-15.2-17.44-36.64-26.4-62.4h-58.88c22.4 27.504 51.68 49.104 85.28 62.4zM327.52 463.904h70.56c-6.88-24.32-12.32-51.36-14.88-80h-80.64c2.88 28.784 11.68 55.824 24.96 80zM301.76 351.904h80c0-25.92 2.56-52.8 9.12-80h-68.96c-11.68 24.464-18.88 51.504-20.16 80zM340.96 239.904h59.68c8.96-25.44 21.76-50.72 39.52-75.36-40.16 14.56-74.72 41.104-99.2 75.36zM494.56 152.688v-4.64l-4.32 4.96-2.4 2.736c-23.2 25.904-41.12 54.080-53.28 84.16h60.16l-0.16-87.216zM494.72 271.904h-71.2c-7.040 25.28-10.4 52-10.4 80h81.76l-0.16-80zM495.040 383.904h-80.16c1.28 13.92 3.36 28.16 6.4 42.72 2.72 13.12 5.92 25.6 9.6 37.28h64.32l-0.16-80zM495.2 495.904h-53.6c16.32 42.88 33.76 70.24 33.92 70.72l2.4 3.84c5.76 0.96 11.52 1.6 17.44 1.92l-0.16-76.48zM696.64 463.904c13.28-24.16 22.080-51.2 24.96-80h-76.48c-2.56 28.64-8.48 55.68-15.68 80h67.2zM674.88 495.904h-56.32c-9.28 25.44-19.68 46.72-27.68 61.92 32.96-13.296 61.76-34.88 84-61.92zM527.36 572.528c6.24-0.32 12.48-1.12 18.56-2.080l2.88-4.32c0.336-0.32 18.72-27.68 36.16-70.24h-57.76l0.16 76.64zM527.2 463.904h69.296c3.52-11.040 6.88-22.72 9.6-34.896 3.52-15.36 5.92-30.384 7.36-45.104h-86.4l0.144 80zM526.88 351.904h88.48c0.32-27.84-3.36-54.56-10.72-80h-77.92l0.16 80zM535.36 153.184c-2.88-0.336-5.76-0.64-8.8-0.64l0.16 87.36h66.56c-12-27.84-28.976-54.080-50.72-78.56l-7.2-8.16zM587.2 165.824c17.92 24.32 31.024 49.104 40.32 74.080h55.68c-23.84-33.28-57.12-59.216-96-74.080zM637.6 271.904c6.72 27.2 9.44 54.080 9.28 80h75.52c-1.264-28.48-8.464-55.536-20.16-80h-64.64z" />
<glyph unicode="&#xe638;" d="M909.44 960h-795.040c-62.88 0-114.4-51.536-114.4-114.56v-795.040c0-62.88 51.52-114.4 114.4-114.4h795.040c63.040 0 114.56 51.52 114.56 114.384v795.056c0 63.024-51.52 114.56-114.56 114.56zM464.8 865.28h125.76v-125.76h-125.76v125.76zM464.8 676.64h125.76v-125.76h-125.76v125.76zM213.44 362.384h-125.76v125.616h125.76v-125.616zM213.44 550.88h-125.76v125.76h125.76v-125.76zM213.44 739.52h-125.76v125.76h125.76v-125.76zM401.92 362.384h-125.6v125.616h125.6v-125.616zM401.92 550.88h-125.6v125.76h125.6v-125.76zM401.92 739.52h-125.6v125.76h125.6v-125.76zM464.8 488h125.76v-36.976c-35.024-22.56-64.32-52.96-85.44-88.8h-40.32v125.776zM734.4-6.56c-129.28 0-234.080 104.8-234.080 234.080 0 4 0.16 7.84 0.32 11.664 0.16 4.176 0.48 8.176 0.96 12.336 0.32 3.84 0.8 7.84 1.44 11.664 0.96 6.4 2.24 12.816 3.84 19.040 0.64 2.88 1.44 5.76 2.24 8.64 2.24 8.64 5.12 16.96 8.64 25.28 1.12 2.72 2.24 5.44 3.52 8.16 6.080 13.28 13.28 26.080 21.744 37.92 13.28 18.88 29.28 35.664 47.536 49.76 0.16 0.16 0.32 0.32 0.64 0.464 2.24 1.76 4.48 3.536 6.88 5.12 5.92 4.32 12 8.32 18.4 12 2.080 1.28 4.16 2.4 6.384 3.52 2.4 1.44 4.976 2.896 7.68 4 2.256 1.12 4.464 2.256 6.72 3.2 8.8 4.16 18.080 7.68 27.536 10.56 2.384 0.8 4.624 1.44 7.024 2.080 5.6 1.6 11.184 2.88 16.976 4 3.024 0.64 6.064 1.12 9.104 1.6 0.64 0.176 1.28 0.336 1.92 0.336 3.52 0.48 7.024 0.96 10.56 1.28 4 0.48 8 0.8 12 0.96 4 0.176 8 0.336 12 0.336 129.12 0 233.904-104.64 233.904-233.92s-104.752-234.080-233.888-234.080zM654.064 359.712c11.792 2.256 24.8 4.016 38.992 5.264 14.192 1.264 28.336 1.904 42.368 1.904 14.608 0 29.296-1.2 44.048-3.584 14.784-2.384 28.064-7.168 39.84-14.336 11.808-7.152 21.44-17.136 28.88-29.92 7.456-12.8 11.184-29.456 11.184-49.968 0-17.984-3.232-33.36-9.696-46.176-6.464-12.768-15.024-23.328-25.712-31.616s-22.832-14.336-36.464-18.128c-13.648-3.792-27.76-5.68-42.368-5.68-1.408 0-3.648 0-6.736 0s-6.32 0.048-9.68 0.208c-3.392 0.144-6.688 0.336-9.92 0.64-3.232 0.288-5.552 0.544-6.96 0.848v-101.616h-57.744v292.16zM740.064 317.136c-5.632 0-10.96-0.208-16.016-0.64-5.056-0.4-9.136-0.912-12.24-1.472v-95.696c1.12-0.288 2.816-0.56 5.056-0.848 2.256-0.272 4.624-0.496 7.168-0.624 2.512-0.144 4.992-0.224 7.376-0.224s4.144 0 5.264 0c7.6 0 15.088 0.704 22.56 2.112 7.44 1.408 14.128 4 20.016 7.808 5.904 3.792 10.608 9.056 14.112 15.792 3.536 6.752 5.296 15.616 5.296 26.56 0 9.28-1.696 16.928-5.056 22.992-3.392 6.032-7.792 10.896-13.28 14.544s-11.744 6.176-18.768 7.584c-7.024 1.408-14.192 2.112-21.488 2.112z" />
<glyph unicode="&#xe639;" d="M909.44 960h-794.88c-63.040 0-114.56-51.536-114.56-114.56v-795.056c0-62.88 51.52-114.384 114.56-114.384h794.88c63.040 0 114.56 51.504 114.56 114.384v795.056c0 63.024-51.52 114.56-114.56 114.56zM957.6 432.944h-25.92c-7.52-215.184-176.8-389.12-390.080-403.84v-44.16c0-13.28-10.72-24-24-24s-24 10.72-24 24v43.536c-218.56 9.28-393.6 185.6-401.28 404.464h-30.72c-13.28 0-24 10.72-24 24s10.72 24 24 24h31.84c16.16 210.416 187.68 377.44 400.16 386.576v29.44c0 13.28 10.72 24 24 24s24-10.72 24-24v-30.080c207.36-14.4 372.976-179.2 388.976-385.92h27.024c13.28 0 24-10.72 24-24s-10.72-24.016-24-24.016zM789.6 456.96c0 13.28 10.72 24 24 24h65.6c-15.664 178.24-158.88 320.32-337.6 334.56v-62.56c0-13.28-10.72-24-24-24s-24 10.72-24 24v63.36c-183.84-9.12-332.8-153.44-348.8-335.36h60.8c13.28 0 24-10.72 24-24s-10.72-24-24-24h-62.080c7.68-190.224 160.16-343.84 350.080-353.28v49.28c0 13.28 10.72 24 24 24s24-10.72 24-24v-48.464c184.64 14.72 331.36 165.904 338.88 352.464h-66.88c-13.28-0.016-24 10.704-24 24zM397.6 240.944h-96v96h96v-96zM397.6 400.944h-96v96h96v-96zM397.6 560.96h-96v96h96v-96zM557.6 240.944h-96v96h96v-96zM557.6 400.944h-96v96h96v-96zM557.6 560.96h-96v96h96v-96zM717.6 240.944h-96v96h96v-96zM717.6 400.944h-96v96h96v-96zM717.6 560.96h-96v96h96v-96z" />
<glyph unicode="&#xe63a;" d="M909.44 960h-795.040c-62.88 0-114.4-51.536-114.4-114.56v-795.040c0-62.88 51.52-114.4 114.4-114.4h795.040c63.040 0 114.56 51.52 114.56 114.384v795.056c0 63.024-51.52 114.56-114.56 114.56zM464.8 865.28h125.76v-125.76h-125.76v125.76zM464.8 676.64h125.76v-125.76h-125.76v125.76zM213.44 362.384h-125.76v125.616h125.76v-125.616zM213.44 550.88h-125.76v125.76h125.76v-125.76zM213.44 739.52h-125.76v125.76h125.76v-125.76zM401.92 362.384h-125.6v125.616h125.6v-125.616zM401.92 550.88h-125.6v125.76h125.6v-125.76zM401.92 739.52h-125.6v125.76h125.6v-125.76zM464.8 488h125.76v-36.976c-35.024-22.56-64.32-52.96-85.44-88.8h-40.32v125.776zM734.4-6.56c-129.28 0-234.080 104.8-234.080 234.080 0 4 0.16 7.84 0.32 11.664 0.16 4.176 0.48 8.176 0.96 12.336 0.32 3.84 0.8 7.84 1.44 11.664 0.96 6.4 2.24 12.816 3.84 19.040 0.64 2.88 1.44 5.76 2.24 8.64 2.24 8.64 5.12 16.96 8.64 25.28 1.12 2.72 2.24 5.44 3.52 8.16 6.080 13.28 13.28 26.080 21.744 37.92 13.28 18.88 29.28 35.664 47.536 49.76 0.16 0.16 0.32 0.32 0.64 0.464 2.24 1.76 4.48 3.536 6.88 5.12 5.92 4.32 12 8.32 18.4 12 2.080 1.28 4.16 2.4 6.384 3.52 2.4 1.44 4.976 2.896 7.68 4 2.256 1.12 4.464 2.256 6.72 3.2 8.8 4.16 18.080 7.68 27.536 10.56 2.384 0.8 4.624 1.44 7.024 2.080 5.6 1.6 11.184 2.88 16.976 4 3.024 0.64 6.064 1.12 9.104 1.6 0.64 0.176 1.28 0.336 1.92 0.336 3.52 0.48 7.024 0.96 10.56 1.28 4 0.48 8 0.8 12 0.96 4 0.176 8 0.336 12 0.336 129.12 0 233.904-104.64 233.904-233.92s-104.752-234.080-233.888-234.080zM628.032 129.984h75.888v195.536h-75.888v52.304h210.944v-52.304h-76.32v-195.536h76.32v-52.304h-210.944v52.304z" />
<glyph unicode="&#xe63b;" d="M909.44 960h-794.88c-63.040 0-114.56-51.52-114.56-114.544v-795.040c0-62.88 51.52-114.416 114.56-114.416h794.88c63.024 0 114.56 51.536 114.56 114.4v795.056c0 63.024-51.536 114.544-114.56 114.544zM608 232.336c0-26.4-17.92-40.64-44.32-40.64h-225.44l-98.24-119.36v119.36h-44.32c-26.4 0-51.68 14.24-51.68 40.64v256c0 26.4 25.28 55.36 51.68 55.36h44.32v-167.36c0-33.76 46.72-88.64 83.68-88.64h284.32v-55.36zM880 376.336c0-23.84-16.464-56.64-28.32-56.64h-99.68v-122.72l-100.8 122.72h-327.52c-16.96 0-51.68 38.080-51.68 56.64v336c0 15.040 31.84 39.36 51.68 39.36h528c16.16 0 28.32-20.8 28.32-39.36v-336zM377.68 432.288l152 174 96-87.008 158 77.008-162-164-94 86.992z" />
<glyph unicode="&#xe63c;" d="M963.133 840.056c-51.916-76.979-103.832-153.958-157.538-229.147-17.902-25.063-35.804-50.126-53.706-76.979-141.427-34.014-245.259-161.119-245.259-313.287 0-10.741 0-21.483 1.79-32.224-25.063-34.014-48.336-69.818-73.399-103.832-7.161-10.741-23.273-28.643-32.224-26.853-12.531 0-35.804 21.483-46.545 34.014-50.126 55.497-98.462 112.783-146.797 170.070-57.287 68.028-112.783 136.056-170.070 204.084-12.531 14.322-21.483 32.224-30.434 50.126-12.531 21.483-7.161 39.385 7.161 57.287 14.322 16.112 30.434 34.014 46.545 46.545 28.643 23.273 44.755 23.273 71.608 0 50.126-41.175 100.252-85.93 148.587-128.895 26.853-23.273 51.916-46.545 76.979-71.608 12.531-12.531 21.483-10.741 34.014 1.79 98.462 114.573 196.923 230.937 295.385 345.51 46.545 55.497 94.881 109.203 141.427 164.699 30.434 34.014 37.594 34.014 75.189 7.161 17.902-12.531 34.014-25.063 50.126-39.385 25.063-19.692 26.853-32.224 7.161-59.077zM827.077 451.58c127.105 0 229.147-103.832 229.147-229.147s-103.832-229.147-229.147-229.147-229.147 103.832-229.147 229.147 102.042 229.147 229.147 229.147zM827.077 508.867c-157.538 0-286.434-128.895-286.434-286.434s128.895-286.434 286.434-286.434 286.434 128.895 286.434 286.434c0 157.538-128.895 286.434-286.434 286.434v0zM793.063 154.406c0 21.483 1.79 37.594 7.161 50.126s12.531 23.273 23.273 32.224c10.741 8.951 19.692 17.902 25.063 25.063s8.951 16.112 8.951 25.063c0 21.483-8.951 32.224-28.643 32.224-8.951 0-16.112-3.58-21.483-8.951s-8.951-14.322-8.951-26.853h-73.399c0 28.643 8.951 51.916 26.853 68.028s42.965 25.063 75.189 25.063c32.224 0 57.287-7.161 75.189-23.273 17.902-14.322 26.853-35.804 26.853-64.448 0-12.531-1.79-23.273-7.161-32.224-5.371-10.741-12.531-19.692-23.273-30.434l-25.063-23.273c-7.161-7.161-12.531-14.322-14.322-21.483-3.58-7.161-3.58-16.112-5.371-26.853h-60.867zM784.112 88.168c0 10.741 3.58 19.692 12.531 26.853s17.902 10.741 28.643 10.741 21.483-3.58 28.643-10.741 12.531-16.112 12.531-26.853c0-10.741-3.58-19.692-12.531-26.853-7.161-7.161-17.902-10.741-28.643-10.741s-21.483 3.58-28.643 10.741c-8.951 7.161-12.531 16.112-12.531 26.853z" horiz-adv-x="1114" />
<glyph unicode="&#xe63d;" d="M908.8 960h-793.6c-64 0-115.2-51.2-115.2-115.2v-795.2c0-62.4 51.2-113.6 115.2-113.6h795.2c62.4 0 115.2 51.2 115.2 115.2v793.6c-1.6 64-52.8 115.2-116.8 115.2zM758.4 576c0-92.8-68.8-168-153.6-168s-153.6 75.2-153.6 168c0 92.8 68.8 168 153.6 168s153.6-75.2 153.6-168zM404.8 816c48 0 91.2-24 120-62.4-60.8-32-102.4-99.2-102.4-176 0-33.6 8-64 20.8-91.2-12.8-3.2-25.6-4.8-38.4-4.8-84.8 0-153.6 75.2-153.6 168 0 91.2 68.8 166.4 153.6 166.4zM281.6 137.6c-107.2 19.2-185.6 64-185.6 115.2v73.6c0 16 17.6 33.6 30.4 41.6l179.2 92.8c1.6 0 4.8 1.6 6.4 1.6 25.6-19.2 59.2-32 94.4-32 20.8 0 41.6 4.8 60.8 12.8 8-9.6 17.6-19.2 28.8-27.2 0 0-1.6 0-1.6 0l-177.6-92.8c-22.4-11.2-44.8-38.4-44.8-67.2v-73.6c0-16 1.6-30.4 9.6-44.8zM912 180.8c0-68.8-136-124.8-304-124.8s-304 56-304 124.8v75.2c0 16 12.8 33.6 27.2 41.6l177.6 92.8c1.6 0 3.2 1.6 4.8 1.6 25.6-19.2 59.2-32 94.4-32s68.8 12.8 94.4 32c1.6 0 3.2-1.6 4.8-1.6l179.2-92.8c14.4-8 27.2-25.6 27.2-41.6v-75.2z" />
<glyph unicode="&#xe63e;" d="M1007.543 960l-14.629-263.314-76.8 74.971-327.314-327.314-98.743-96.914-122.514 122.514-257.829-257.829-96.914 96.914 257.829 257.829 96.914 98.743 124.343-124.343 327.314 327.314-76.8 76.8zM0 155.429h109.714v-219.429h-109.714v219.429zM182.857 155.429h109.714v-219.429h-109.714v219.429zM365.714 246.857h109.714v-310.857h-109.714v310.857zM548.571 246.857h109.714v-310.857h-109.714v310.857zM731.429 448h109.714v-512h-109.714v512zM914.286 557.714h109.714v-621.714h-109.714v621.714z" />
<glyph unicode="&#xe63f;" d="M512 960c-281.6 0-512-230.4-512-512s230.4-512 512-512c281.6 0 512 230.4 512 512s-228.571 512-512 512zM354.743 868.571c-20.114-38.4-45.714-96.914-69.486-168.229h-144.457c53.029 74.971 126.171 135.314 213.943 168.229zM106.057 636.343h162.743c-12.8-53.029-23.771-113.371-25.6-175.543h-179.2c1.829 62.171 16.457 122.514 42.057 175.543zM115.2 237.714c-25.6 49.371-42.057 102.4-49.371 159.086h173.714c1.829-51.2 9.143-106.057 23.771-159.086h-148.114zM157.257 175.543h128c20.114-51.2 45.714-102.4 82.286-151.771-84.114 29.257-157.257 82.286-210.286 151.771zM301.714 396.8h177.371v-159.086h-149.943c-16.457 54.857-25.6 107.886-27.429 159.086zM460.8 7.314c-47.543 54.857-84.114 109.714-107.886 166.4h126.171v-173.714c-3.657 0-7.314 0-12.8 1.829l-5.486 5.486zM479.086-12.8v0 0 0zM479.086 460.8h-177.371c3.657 62.171 14.629 122.514 27.429 175.543h149.943v-175.543zM480.914 700.343h-129.829c36.571 104.229 80.457 173.714 84.114 181.029l5.486 9.143c12.8 1.829 25.6 3.657 40.229 5.486v-195.657zM960 460.8h-164.571c-3.657 62.171-14.629 120.686-29.257 175.543h151.771c25.6-53.029 40.229-113.371 42.057-175.543zM883.2 700.343h-135.314c-23.771 69.486-51.2 128-71.314 164.571 84.114-32.914 155.429-91.429 206.629-164.571zM544.914 894.171c14.629 0 29.257-1.829 43.886-5.486l5.486-9.143c1.829-1.829 49.371-73.143 87.771-181.029h-137.143v195.657zM543.086 636.343h159.086c14.629-53.029 27.429-113.371 31.086-175.543h-190.171v175.543zM543.086 396.8h190.171c-1.829-51.2-10.971-106.057-27.429-159.086h-162.743v159.086zM565.029 1.829c-7.314-1.829-14.629-1.829-21.943-1.829v173.714h138.971c-23.771-53.029-56.686-104.229-102.4-155.429l-14.629-16.457zM667.429 27.429c36.571 49.371 64 98.743 84.114 148.114h117.029c-51.2-67.657-120.686-118.857-201.143-148.114zM908.8 237.714h-135.314c14.629 53.029 21.943 107.886 23.771 159.086h160.914c-5.486-56.686-23.771-109.714-49.371-159.086z" />
<glyph unicode="&#xe640;" d="M473.193-64c0 25.037 0 22.533 0 27.54 0 85.125 5.007 170.249 5.007 252.87 0 55.081 40.059 90.132 95.139 92.636 27.54 0 52.577 0 80.117 0 60.088 0 95.139-37.555 95.139-97.643 0-82.621 0-167.746 0-250.367 0-5.007 0-10.015 0-15.022 0 0 7.511 0 10.015 0 67.599 0 132.694 0 200.293 0 5.007 0 10.015 0 12.518 2.504 55.081 10.015 92.636 57.584 92.636 112.665 0 122.68 0 245.359 0 368.039 0 12.518-5.007 22.533-15.022 30.044-125.183 95.139-252.87 192.782-378.054 287.922-30.044 22.533-65.095 22.533-92.636 0-125.183-95.139-252.87-192.782-378.054-287.922-10.015-7.511-17.526-17.526-15.022-32.548 0-122.68 0-250.367 0-375.55 0-62.592 50.073-117.672 112.665-117.672 15.022 0 30.044 0 45.066 0 42.562 2.504 80.117 2.504 130.191 2.504zM886.298 784.743c-7.511 5.007-10.015 7.511-15.022 10.015-62.592 47.57-125.183 95.139-190.279 142.709-40.059 30.044-82.621 30.044-120.176 0-180.264-135.198-360.528-272.9-540.792-408.098-2.504-2.504-7.511-5.007-10.015-7.511-10.015-10.015-12.518-25.037-7.511-35.051 5.007-12.518 17.526-20.029 32.548-17.526 7.511 2.504 17.526 5.007 25.037 10.015 177.76 132.694 358.024 267.892 535.785 403.090 22.533 17.526 30.044 17.526 52.577 0 147.716-110.161 292.929-220.323 440.645-330.484 35.051-25.037 67.599-52.577 102.65-77.614 12.518-10.015 25.037-10.015 37.555-2.504s17.526 17.526 15.022 32.548c-2.504 10.015-7.511 20.029-15.022 25.037-50.073 40.059-102.65 80.117-152.724 120.176-10.015 7.511-15.022 15.022-12.518 27.54 0 42.562 0 85.125 0 127.687 0 25.037-15.022 42.562-40.059 45.066-32.548 2.504-62.592 2.504-95.139 0-22.533 0-37.555-17.526-40.059-40.059-2.504-10.015-2.504-15.022-2.504-25.037z" horiz-adv-x="1244" />
<glyph unicode="&#xe641;" d="M246.4 206.4l99.2-12.8-129.6-24-75.2 416 112 20.8-44.8-348.8c-3.2-25.6 14.4-48 38.4-51.2zM744 644.8l-155.2 20.8 147.2 25.6zM803.2 587.2l-49.6 6.4-318.4 43.2-124.8 16-6.4-38.4-48-360 244.8-32 155.2-20.8 174.4-25.6 8 59.2 12.8 91.2 33.6 249.6-81.6 11.2zM454.4 547.2c30.4 0 54.4-25.6 52.8-54.4s-25.6-52.8-54.4-52.8c-30.4 0-54.4 25.6-52.8 54.4 0 30.4 24 54.4 54.4 52.8zM307.2 304c11.2 28.8 30.4 48 57.6 57.6 33.6 12.8 68.8 9.6 104 3.2 11.2-1.6 22.4-4.8 33.6-9.6 8-3.2 12.8-1.6 17.6 4.8 35.2 40 70.4 81.6 105.6 121.6 3.2 3.2 6.4 6.4 9.6 9.6 20.8-41.6 43.2-83.2 62.4-121.6 17.6 16 33.6 32 52.8 48 11.2-60.8 22.4-120 33.6-182.4-158.4 24-316.8 46.4-476.8 68.8zM908.8 960h-793.6c-64 0-115.2-51.2-115.2-115.2v-795.2c0-62.4 51.2-113.6 115.2-113.6h795.2c62.4 0 115.2 51.2 115.2 115.2v793.6c-1.6 64-52.8 115.2-116.8 115.2zM931.2 572.8l-54.4-404.8c-3.2-22.4-22.4-40-44.8-40-1.6 0-4.8 0-6.4 0l-324.8 43.2-278.4-49.6c-3.2 0-4.8 0-8 0-22.4 0-41.6 16-44.8 38.4l-75.2 419.2c-4.8 24 12.8 48 36.8 52.8l129.6 24 1.6 8c3.2 22.4 22.4 40 44.8 40 1.6 0 4.8 0 6.4 0l120-16 296 52.8c3.2 0 4.8 0 8 0 22.4 0 41.6-16 44.8-38.4l11.2-64 97.6-12.8c25.6-4.8 43.2-27.2 40-52.8z" />
<glyph unicode="&#xe642;" d="M920.53 431.944c-16.056 14.272-33.895 28.544-53.519 39.247-41.031 23.192-89.199 35.679-139.15 35.679-14.272 0-26.76-1.784-41.031-3.568-35.679-5.352-69.575-16.056-98.118-33.895-16.056-8.92-32.111-19.624-44.599-32.111-57.087-48.167-94.551-119.526-99.902-199.805 0-5.352 0-10.704 0-17.84 0-69.575 24.976-132.014 66.007-181.965 5.352-5.352 8.92-10.704 14.272-16.056 7.136-7.136 14.272-14.272 23.192-21.408 49.951-41.031 112.39-66.007 181.965-66.007 156.99 0 285.436 128.446 285.436 285.436-1.784 85.631-37.463 160.557-94.551 212.293zM497.728 221.436c0 5.352 0 10.704 0 17.84 5.352 69.575 42.815 132.014 96.334 169.477 26.76 19.624 58.871 32.111 92.767 37.463 12.488 1.784 26.76 3.568 39.247 3.568 53.519 0 103.47-19.624 142.718-49.951l-322.899-322.899c-28.544 41.031-48.167 90.983-48.167 144.502zM727.861-6.913c-42.815 0-82.063 10.704-114.174 32.111-7.136 3.568-14.272 8.92-21.408 14.272l321.115 321.115c28.544-37.463 46.383-85.631 46.383-137.366-3.568-128.446-105.254-230.132-231.916-230.132zM294.355 949.296l-76.711-244.404c0 0-82.063 7.136-73.143-103.47s53.519-324.683 53.519-324.683 19.624-37.463 73.143-26.76l137.366-221.213-101.686-5.352c0 0-237.268-33.895-305.059 449.561-14.272 173.045 51.735 374.634 74.927 412.098s96.334 99.902 217.645 64.223zM317.547 940.376l-76.711-239.052c0 0 51.735-12.488 82.063 19.624l51.735 160.557c0 1.784-24.976 58.871-57.087 58.871zM447.777 62.662c-10.704-14.272-23.192-23.192-23.192-23.192l-130.23 214.077c21.408 24.976 82.063 5.352 82.063 5.352l30.328-49.951c1.784-53.519 17.84-103.47 41.031-146.286z" horiz-adv-x="1013" />
<glyph unicode="&#xe643;" d="M537.509 960c-41.907 0-63.772-34.619-63.772-76.527v-211.359h127.544v211.359c0 41.907-21.865 76.527-63.772 76.527zM154.875 960c-41.907 0-63.772-34.619-63.772-76.527v-211.359h127.544v211.359c0 41.907-21.865 76.527-63.772 76.527zM692.384 637.495v-116.612c-105.68-54.662-178.562-165.808-178.562-293.352 0-10.932 0-20.043 1.822-30.975-23.687-12.754-49.196-25.509-78.349-34.619h-1.822c0 0 1.822-1.822 1.822-5.466 0-56.484-45.552-94.747-100.214-94.747-56.484 0-100.214 41.907-100.214 96.569 0 3.644 1.822 3.644 1.822 3.644h-1.822c-235.046 74.705-236.868 307.929-236.868 307.929v165.808h692.384zM841.794 462.577c129.367 0 233.224-105.68 233.224-233.224s-105.68-235.046-233.224-235.046-233.224 105.68-233.224 233.224 103.858 235.046 233.224 235.046zM841.794 519.060c-160.342 0-291.53-131.189-291.53-291.53s131.189-291.53 291.53-291.53 291.53 131.189 291.53 291.53c0 162.164-131.189 291.53-291.53 291.53v0zM960.228 304.057l-43.73 43.73-74.705-74.705-76.527 74.705-43.73-45.552 74.705-74.705-74.705-74.705 43.73-45.552 76.527 76.527 74.705-76.527 43.73 45.552-74.705 74.705z" horiz-adv-x="1133" />
<glyph unicode="&#xe644;" d="M428.777 960c-237.004 0-428.777-191.774-428.777-428.777s191.774-428.777 428.777-428.777c39.802 0 79.604 5.428 115.788 16.283-10.855 32.565-18.092 68.749-18.092 104.933v3.618c-12.664-18.092-25.329-36.184-41.611-54.276l-12.664-14.473c-5.428 0-12.664-1.809-18.092-1.809v146.544h83.223c3.618 18.092 10.855 36.184 18.092 52.466h-101.314v133.88h159.208c0-16.283-1.809-32.565-3.618-48.848 45.23 50.657 104.933 86.841 173.682 101.314h-117.597c-3.618 52.466-12.664 101.314-23.519 146.544h126.643c19.901-43.42 32.565-92.269 34.375-142.926 16.283 1.809 32.565 3.618 48.848 3.618h3.618c-9.046 227.958-197.201 410.686-426.968 410.686zM296.707 882.205c-16.283-30.756-37.993-79.604-57.894-139.307h-121.216c43.42 63.322 104.933 112.17 179.11 139.307zM88.65 688.622h135.689c-10.855-45.23-19.901-94.078-21.71-146.544h-148.353c0 52.466 12.664 103.124 34.375 146.544zM95.887 357.541c-21.71 41.611-36.184 85.032-41.611 132.071h144.735c1.809-43.42 7.237-88.65 19.901-132.071h-123.025zM130.261 303.265h106.742c16.283-43.42 37.993-85.032 68.749-126.643-68.749 25.329-130.261 68.749-175.491 126.643zM251.477 489.611h148.353v-132.071h-126.643c-12.664 43.42-19.901 88.65-21.71 132.071zM385.357 163.958c-39.802 45.23-68.749 92.269-90.459 139.307h106.742v-144.735c-3.618 0-7.237 0-10.855 0l-5.428 5.428zM399.83 147.675v0 0 0zM401.64 543.887h-148.353c1.809 52.466 10.855 101.314 23.519 146.544h124.834v-146.544zM401.64 742.898h-108.551c30.756 86.841 66.94 144.735 70.558 151.972l5.428 7.237c10.855 1.809 21.71 3.618 32.565 3.618v-162.827zM454.106 905.724c12.664 0 23.519-1.809 36.184-3.618l5.428-7.237c1.809-1.809 41.611-61.512 74.177-150.163h-115.788v161.018zM454.106 543.887v146.544h132.071c12.664-45.23 21.71-94.078 25.329-146.544h-157.399zM625.979 742.898c-19.901 57.894-43.42 106.742-59.703 137.498 70.558-27.138 130.261-75.986 171.873-137.498h-112.17zM852.127 457.046c128.452 0 231.576-104.933 231.576-231.576s-104.933-231.576-231.576-231.576-231.576 104.933-231.576 231.576 103.124 231.576 231.576 231.576v0zM852.127 514.94c-159.208 0-289.47-130.261-289.47-289.47s130.261-289.47 289.47-289.47 289.47 130.261 289.47 289.47c0 159.208-130.261 289.47-289.47 289.47v0zM882.883 162.148c0 9.046-1.809 16.283-7.237 21.71s-12.664 10.855-25.329 14.473c-12.664 5.428-23.519 9.046-32.565 14.473s-18.092 10.855-25.329 16.283c-7.237 7.237-12.664 14.473-16.283 21.71-3.618 9.046-5.428 18.092-5.428 30.756 0 19.901 7.237 36.184 21.71 50.657 14.473 12.664 32.565 21.71 56.085 23.519v27.138h28.947v-27.138c21.71-3.618 39.802-12.664 52.466-27.138s19.901-34.375 19.901-56.085h-61.512c0 12.664-1.809 21.71-7.237 28.947s-12.664 10.855-21.71 10.855c-7.237 0-14.473-1.809-18.092-7.237s-7.237-12.664-7.237-19.901c0-9.046 1.809-16.283 7.237-21.71s12.664-10.855 25.329-14.473c10.855-5.428 21.71-9.046 32.565-14.473s18.092-10.855 25.329-18.092c7.237-7.237 12.664-14.473 18.092-23.519 3.618-9.046 5.428-19.901 5.428-30.756 0-19.901-7.237-37.993-19.901-50.657s-30.756-19.901-54.276-23.519v-25.329h-28.947v25.329c-27.138 3.618-47.039 10.855-61.512 27.138-14.473 14.473-21.71 34.375-21.71 59.703h61.512c0-14.473 3.618-23.519 9.046-30.756s14.473-10.855 27.138-10.855c9.046 0 14.473 1.809 19.901 7.237 0 7.237 3.618 12.664 3.618 21.71z" horiz-adv-x="1142" />
<glyph unicode="&#xe645;" d="M548.635 221.934c0-1.787 0-5.361 0-7.148h-525.403c-12.51 0-23.232 10.723-23.232 23.232v35.742c0 12.51 7.148 28.593 17.871 37.529 0 0 146.541 123.309 157.264 321.675 12.51 235.895 134.031 226.96 196.579 226.96s184.070 8.935 196.579-226.96c3.574-78.632 30.38-146.541 60.761-198.366-50.038-58.974-80.419-132.244-80.419-212.663zM364.565 902.813h23.232c19.658 0 39.316-1.787 58.974-5.361v17.871c0 25.019-19.658 44.677-44.677 44.677h-58.974c-25.019 0-44.677-19.658-44.677-44.677v-17.871c19.658 3.574 39.316 5.361 58.974 5.361h7.148zM282.36 171.895c0-41.103 33.955-89.354 73.271-89.354h30.38c41.103 0 73.271 48.251 73.271 89.354v0h-176.921zM870.311 452.468c126.883 0 228.747-103.651 228.747-228.747s-103.651-228.747-228.747-228.747-228.747 103.651-228.747 228.747 101.864 228.747 228.747 228.747zM870.311 507.867c-157.264 0-285.934-128.67-285.934-285.934s128.67-285.934 285.934-285.934 285.934 128.67 285.934 285.934c0 159.051-126.883 285.934-285.934 285.934v0zM827.421 93.264c0 10.723 3.574 19.658 12.51 26.806s17.871 10.723 30.38 10.723 21.445-3.574 30.38-10.723c8.935-7.148 12.51-16.084 12.51-26.806s-3.574-19.658-12.51-26.806c-8.935-7.148-17.871-10.723-30.38-10.723s-21.445 3.574-30.38 10.723c-7.148 7.148-12.51 16.084-12.51 26.806zM902.478 180.831h-62.548l-8.935 207.302h80.419l-8.935-207.302z" horiz-adv-x="1156" />
<glyph unicode="&#xe646;" d="M208 656h608v-336h-608v336zM908.8 960h-793.6c-64 0-115.2-51.2-115.2-115.2v-795.2c0-62.4 51.2-113.6 115.2-113.6h795.2c62.4 0 115.2 51.2 115.2 115.2v793.6c-1.6 64-52.8 115.2-116.8 115.2zM160 670.4c0 19.2 16 33.6 33.6 33.6h635.2c19.2 0 33.6-16 33.6-33.6v-363.2c0-19.2-16-35.2-33.6-35.2h-635.2c-17.6 0-33.6 16-33.6 35.2v363.2zM912 201.6c0-20.8-16-41.6-36.8-41.6h-726.4c-20.8 0-36.8 20.8-36.8 41.6v38.4h800v-38.4zM576 224h-128v-32h128v32z" />
<glyph unicode="&#xe647;" d="M391.372 221.934c0-44.677 8.935-87.567 26.806-126.883-10.723 0-21.445 0-32.168 0-214.45 0-386.010 69.696-386.010 155.476v92.928c0 19.658 17.871 42.89 35.742 51.825l223.386 117.948c1.787 1.787 5.361 1.787 7.148 3.574 32.168-25.019 73.271-39.316 117.948-39.316s85.78 14.297 117.948 39.316c1.787 0 5.361-1.787 7.148-3.574l32.168-17.871c-89.354-55.4-150.115-157.264-150.115-273.424zM573.654 747.337c0-116.161-85.78-210.876-193.005-210.876s-193.005 94.716-193.005 210.876c0 117.948 87.567 212.663 193.005 212.663 107.225 0 193.005-94.716 193.005-212.663zM906.052 432.81c-16.084 14.297-33.955 28.593-53.613 39.316-41.103 23.232-89.354 35.742-139.393 35.742-14.297 0-26.806-1.787-41.103-3.574-35.742-5.361-69.696-16.084-98.29-33.955-16.084-8.935-32.168-19.658-44.677-32.168-57.187-48.251-94.716-119.735-100.077-200.154 0-5.361 0-10.723 0-17.871 0-69.696 25.019-132.244 66.122-182.283 5.361-5.361 8.935-10.723 14.297-16.084 7.148-7.148 14.297-14.297 23.232-21.445 50.038-41.103 112.586-66.122 182.283-66.122 157.264 0 285.934 128.67 285.934 285.934-1.787 85.78-37.529 160.838-94.716 212.663zM482.513 221.934c0 5.361 0 10.723 0 17.871 5.361 69.696 42.89 132.244 96.503 169.773 26.806 19.658 58.974 32.168 92.928 37.529 12.51 1.787 26.806 3.574 39.316 3.574 53.613 0 103.651-19.658 142.967-50.038l-323.462-323.462c-28.593 41.103-48.251 91.141-48.251 144.754zM713.047-6.813c-42.89 0-82.206 10.723-114.373 32.168-7.148 3.574-14.297 8.935-21.445 14.297l321.675 319.888c28.593-37.529 46.464-85.78 46.464-137.606-3.574-125.096-105.438-228.747-232.321-228.747z" horiz-adv-x="999" />
<glyph unicode="&#xe648;" d="M959.147 439.467c122.88 0 221.867-98.987 221.867-221.867s-98.987-221.867-221.867-221.867-221.867 98.987-221.867 221.867 98.987 221.867 221.867 221.867v0zM959.147 494.080c-151.893 0-276.48-124.587-276.48-276.48s124.587-276.48 276.48-276.48 276.48 124.587 276.48 276.48c0 153.6-124.587 276.48-276.48 276.48v0zM986.453 157.867c0 8.533-1.707 15.36-6.827 20.48s-11.947 10.24-23.893 13.653c-11.947 5.12-22.187 8.533-30.72 13.653-10.24 5.12-17.067 10.24-23.893 15.36-6.827 6.827-11.947 13.653-15.36 20.48-3.413 8.533-5.12 17.067-5.12 29.013 0 18.773 6.827 34.133 20.48 47.787 13.653 11.947 30.72 20.48 52.907 22.187v25.6h27.307v-25.6c20.48-3.413 37.547-11.947 49.493-25.6s18.773-32.427 18.773-52.907h-58.027c0 11.947-1.707 20.48-6.827 27.307s-11.947 10.24-20.48 10.24c-6.827 0-13.653-1.707-17.067-6.827s-6.827-11.947-6.827-18.773c0-8.533 1.707-15.36 6.827-20.48s11.947-10.24 23.893-13.653c10.24-5.12 20.48-8.533 30.72-13.653s17.067-10.24 23.893-17.067c6.827-6.827 11.947-13.653 17.067-22.187 3.413-8.533 5.12-18.773 5.12-29.013 0-18.773-6.827-35.84-18.773-47.787s-29.013-18.773-51.2-22.187v-23.893h-27.307v25.6c-25.6 3.413-44.373 10.24-58.027 25.6-13.653 13.653-20.48 32.427-20.48 56.32h58.027c0-13.653 3.413-22.187 8.533-29.013s13.653-10.24 25.6-10.24c8.533 0 13.653 1.707 18.773 6.827 1.707 5.12 3.413 11.947 3.413 18.773zM443.733 601.6h375.467v-68.267h-375.467v68.267zM443.733 721.067h375.467v-68.267h-375.467v68.267zM443.733 840.533h375.467v-68.267h-375.467v68.267zM443.733 960h375.467v-68.267h-375.467v68.267zM0 482.133h375.467v-68.267h-375.467v68.267zM0 362.667h375.467v-68.267h-375.467v68.267zM0 243.2h375.467v-68.267h-375.467v68.267zM0 123.733h375.467v-68.267h-375.467v68.267zM0 4.267h375.467v-68.267h-375.467v68.267zM768 482.133c-30.72-18.773-58.027-40.96-80.213-68.267h-244.053v68.267h324.267zM653.653 362.667c-11.947-22.187-20.48-44.373-27.307-68.267h-182.613v68.267h209.92zM619.52 174.933h-175.787v68.267h174.080c0-8.533-1.707-17.067-1.707-25.6 1.707-13.653 1.707-29.013 3.413-42.667zM663.893 55.467h-220.16v68.267h187.733c8.533-23.893 18.773-47.787 32.427-68.267zM802.133-64h-358.4v68.267h259.413c27.307-29.013 61.44-51.2 98.987-68.267z" horiz-adv-x="1236" />
<glyph unicode="&#xe649;" d="M574.4 348.8c0-22.4-14.4-41.6-30.4-52.8v-67.2c0-17.6-16-32-32-32s-32 14.4-32 32v67.2c-16 11.2-28.8 28.8-28.8 51.2 0 33.6 28.8 60.8 62.4 60.8 33.6 1.6 60.8-25.6 60.8-59.2zM908.8 960h-793.6c-64 0-115.2-51.2-115.2-115.2v-795.2c0-62.4 51.2-113.6 115.2-113.6h795.2c62.4 0 115.2 51.2 115.2 115.2v793.6c-1.6 64-52.8 115.2-116.8 115.2zM304 656c0 110.4 97.6 200 208 200s208-89.6 208-200v-64h-80v64c0 64-64 116.8-128 116.8s-128-52.8-128-116.8v-64h-80v64zM816 128c0-25.6-22.4-48-48-48h-512c-27.2 0-48 22.4-48 48v384c0 27.2 20.8 48 48 48h512c25.6 0 48-20.8 48-48v-384z" />
<glyph unicode="&#xe64a;" d="M476.8 342.4c0-22.4-12.8-41.6-28.8-51.2v-65.6c0-17.6-16-32-32-32s-32 14.4-32 32v65.6c-16 9.6-28.8 28.8-28.8 49.6 0 33.6 28.8 59.2 60.8 59.2 33.6 1.6 60.8-25.6 60.8-57.6zM908.8 960h-793.6c-64 0-115.2-51.2-115.2-115.2v-795.2c0-62.4 51.2-113.6 115.2-113.6h795.2c62.4 0 115.2 51.2 115.2 115.2v793.6c-1.6 64-52.8 115.2-116.8 115.2zM912 608h-80v68.8c0 62.4-49.6 113.6-112 113.6s-112-51.2-112-113.6v-116.8h64c27.2 0 48-20.8 48-48v-384c0-27.2-20.8-48-48-48h-512c-27.2 0-48 20.8-48 48v384c0 27.2 20.8 48 48 48h368v116.8c0 107.2 84.8 195.2 192 195.2s192-88 192-195.2v-68.8z" />
<glyph unicode="&#xe64b;" d="M480 208h64v-64h-64v64zM620.8 398.4c0-16-3.2-28.8-11.2-43.2-6.4-12.8-19.2-25.6-36.8-41.6-19.2-16-24-24-25.6-25.6-1.6-4.8-4.8-16-4.8-32v-16h-64v16c0 16 1.6 46.4 9.6 60.8 6.4 12.8 17.6 27.2 33.6 41.6 17.6 16 22.4 22.4 24 25.6 3.2 4.8 3.2 9.6 3.2 14.4 0 11.2-3.2 20.8-9.6 28.8-4.8 4.8-11.2 8-24 8h-3.2c-28.8 0-36.8-36.8-40-48l-1.6-16h-68.8l1.6 17.6c3.2 33.6 12.8 57.6 33.6 76.8s48 28.8 75.2 28.8c33.6 0 57.6-8 76.8-24 20.8-22.4 32-44.8 32-72zM908.8 960h-793.6c-64 0-115.2-51.2-115.2-115.2v-795.2c0-62.4 51.2-113.6 115.2-113.6h795.2c62.4 0 115.2 51.2 115.2 115.2v793.6c-1.6 64-52.8 115.2-116.8 115.2zM304 656c0 110.4 97.6 200 208 200s208-89.6 208-200v-64h-80v64c0 64-64 116.8-128 116.8s-128-52.8-128-116.8v-64h-80v64zM816 128c0-25.6-20.8-48-48-48h-512c-27.2 0-48 22.4-48 48v384c0 27.2 20.8 48 48 48h512c27.2 0 48-20.8 48-48v-384z" />
<glyph unicode="&#xe64c;" d="M320 352h64v-192h-64v192zM432 352h80v-192h-80v192zM320 544h240v-144h-240v144zM608 544h96v-144h-96v144zM560 352h144v-192h-144v192zM908.8 960h-793.6c-64 0-115.2-51.2-115.2-115.2v-795.2c0-62.4 51.2-113.6 115.2-113.6h795.2c62.4 0 115.2 51.2 115.2 115.2v793.6c-1.6 64-52.8 115.2-116.8 115.2zM800 148.8c0-35.2-33.6-68.8-68.8-68.8h-441.6c-36.8 0-65.6 33.6-65.6 68.8v569.6l108.8 81.6h396.8c36.8 0 68.8-12.8 68.8-48v-603.2z" />
<glyph unicode="&#xe64d;" d="M908.8 960h-793.6c-64 0-115.2-51.2-115.2-115.2v-795.2c0-62.4 51.2-113.6 115.2-113.6h795.2c62.4 0 115.2 51.2 115.2 115.2v793.6c-1.6 64-52.8 115.2-116.8 115.2zM672 96h-320v160h320v-160zM672 496v-160h-320v160h-144l304 320 304-320h-144z" />
</font>
</defs>
</svg>
